<svg viewBox="-926.5 -490.5 1853 981" width="1853" height="981" style="background-color: rgb(255, 255, 255);" xmlns="http://www.w3.org/2000/svg"><path d="M-311.4683321165252,-4.92605807572277L-367.0837920385601,-12.245659733986852M-367.08379203856015,-119.75175988695314L-367.0837920385601,-12.245659733986852M-367.0837920385601,-12.245659733986852L-413.929641367146,16.96186602835765" style="fill:none;stroke:rgb(0,0,0);stroke-width:1;stroke-linecap:round"></path><path d="M-311.4683321165252,-4.926058075722767L-367.0837920385601,-12.24565973398685L-367.08379203856015,-119.75175988695312z" style="fill:rgb(238,238,238); fill-opacity: 0.4"></path><path d="M-311.4683321165252,-112.43215822868906L-311.4683321165252,-4.92605807572277M-311.4683321165252,-4.92605807572277L-358.31418144511105,24.281467686621735M-311.4683321165252,-112.43215822868906L-367.08379203856015,-119.75175988695314M-367.08379203856015,-119.75175988695314L-413.929641367146,-90.54423412460862" style="fill:none;stroke:rgb(0,0,0);stroke-width:1;stroke-linecap:round"></path><path d="M-311.46833211652523,-112.43215822868905L-311.4683321165252,-4.926058075722767L-367.08379203856015,-119.75175988695312zM-413.92964136714596,16.961866028357655L-367.0837920385601,-12.24565973398685L-311.4683321165252,-4.926058075722767z" style="fill:rgb(238,238,238); fill-opacity: 0.4"></path><path d="M-211.72206844718417,3.0492716814125154L-276.60677108226326,-5.490263506635612M-276.60677108226326,-97.63835044972338L-276.60677108226326,-5.490263506635612M-276.60677108226326,-5.490263506635612L-316.7603566993694,19.5447588735966" style="fill:none;stroke:rgb(0,0,0);stroke-width:1;stroke-linecap:round"></path><path d="M-367.08379203856015,-119.75175988695312L-367.0837920385601,-12.24565973398685L-413.929641367146,-90.54423412460862z" style="fill:rgb(238,238,238); fill-opacity: 0.4"></path><path d="M-311.4683321165252,-112.43215822868906L-358.3141814451111,-83.22463246634453" style="fill:none;stroke:rgb(0,0,0);stroke-width:1;stroke-linecap:round"></path><path d="M-358.31418144511105,24.28146768662174L-311.4683321165252,-4.926058075722767L-311.46833211652523,-112.43215822868905zM-211.72206844718417,3.0492716814125145L-276.6067710822633,-5.49026350663561L-276.6067710822633,-97.63835044972339zM-367.0837920385601,-12.24565973398685L-413.92964136714596,16.961866028357655L-413.929641367146,-90.54423412460862z" style="fill:rgb(238,238,238); fill-opacity: 0.4"></path><path d="M-211.72206844718417,-89.09881526167524L-276.60677108226326,-97.63835044972338M-276.60677108226326,-97.63835044972338L-316.7603566993694,-72.60332806949116M-211.72206844718417,-89.09881526167524L-211.72206844718417,3.0492716814125154M-211.72206844718417,3.0492716814125154L-251.8756540642903,28.084294061644723" style="fill:none;stroke:rgb(0,0,0);stroke-width:1;stroke-linecap:round"></path><path d="M-406.74971886769873,-117.20100203992484h21.023695427167908v10.51184771358366h-21.023695427167908z" style="fill:rgb(255,255,255)"></path><path d="M-358.3141814451111,-83.22463246634453L-311.46833211652523,-112.43215822868905L-367.08379203856015,-119.75175988695312zM-358.31418144511105,24.28146768662174L-413.92964136714596,16.961866028357655L-311.4683321165252,-4.926058075722767z" style="fill:rgb(238,238,238); fill-opacity: 0.4"></path><path d="M-347.48602380798684,-9.483498815977878L-403.1014837300217,-16.803100474241962M-403.1014837300217,-22.845899788948557L-403.1014837300217,-16.803100474241962M-403.1014837300217,-16.803100474241962L-405.73463725169944,-15.161377665863254M-347.48602380798684,-15.526298130684475L-403.1014837300217,-22.845899788948557M-403.1014837300217,-22.845899788948557L-405.73463725169944,-21.204176980569848" style="fill:none;stroke:rgb(0,0,0);stroke-width:1;stroke-linecap:round"></path><path d="M-403.1014837300217,-22.845899788948557L-403.1014837300217,-16.803100474241965L-405.73463725169944,-21.204176980569848zM-403.1014837300217,-16.803100474241965L-405.73463725169944,-15.161377665863252L-405.73463725169944,-21.204176980569848z" style="fill:rgb(153,221,255); fill-opacity: 0.4"></path><path d="M-211.72206844718417,-89.09881526167524L-211.72206844718417,3.0492716814125145L-276.6067710822633,-97.63835044972339zM-316.7603566993694,19.544758873596603L-276.6067710822633,-5.49026350663561L-211.72206844718417,3.0492716814125145z" style="fill:rgb(238,238,238); fill-opacity: 0.4"></path><path d="M-405.73463725169944,-21.204176980569848L-405.73463725169944,-15.161377665863254M-405.73463725169944,-15.161377665863254L-350.1191773296646,-7.84177600759917M-405.73463725169944,-21.204176980569848L-350.1191773296646,-13.884575322305766" style="fill:none;stroke:rgb(0,0,0);stroke-width:1;stroke-linecap:round"></path><path d="M-347.48602380798684,-9.483498815977885L-403.1014837300217,-16.803100474241965L-403.1014837300217,-22.845899788948557zM-405.73463725169944,-15.161377665863252L-403.1014837300217,-16.803100474241965L-347.48602380798684,-9.483498815977885zM-405.73463725169944,-21.204176980569848L-350.1191773296646,-13.88457532230577L-403.1014837300217,-22.845899788948557z" style="fill:rgb(153,221,255); fill-opacity: 0.4"></path><path d="M-276.6067710822633,-97.63835044972339L-276.6067710822633,-5.49026350663561L-316.7603566993694,-72.60332806949116z" style="fill:rgb(238,238,238); fill-opacity: 0.4"></path><path d="M-413.929641367146,-90.54423412460862L-413.929641367146,16.96186602835765M-413.929641367146,16.96186602835765L-358.31418144511105,24.281467686621735" style="fill:none;stroke:rgb(0,0,0);stroke-width:1;stroke-linecap:round"></path><path d="M-405.73463725169944,-21.204176980569848L-405.73463725169944,-15.161377665863252L-350.1191773296646,-13.88457532230577zM-347.48602380798684,-15.526298130684479L-347.48602380798684,-9.483498815977885L-403.1014837300217,-22.845899788948557zM-350.1191773296646,-13.88457532230577L-347.48602380798684,-15.526298130684479L-403.1014837300217,-22.845899788948557zM-350.1191773296646,-7.841776007599171L-405.73463725169944,-15.161377665863252L-347.48602380798684,-9.483498815977885z" style="fill:rgb(153,221,255); fill-opacity: 0.4"></path><path d="M-102.70655935744222,12.244535324649528L-176.86050834933496,2.485066127257538M-176.860508349335,-74.30500760595173L-176.86050834933496,2.485066127257538M-176.86050834933496,2.485066127257538L-210.32183025496138,23.347585125377474" style="fill:none;stroke:rgb(0,0,0);stroke-width:1;stroke-linecap:round"></path><path d="M-413.929641367146,-90.54423412460862L-358.3141814451111,-83.22463246634453L-367.08379203856015,-119.75175988695312z" style="fill:rgb(238,238,238); fill-opacity: 0.4"></path><path d="M-405.73463725169944,-15.161377665863252L-350.1191773296646,-7.841776007599171L-350.1191773296646,-13.88457532230577z" style="fill:rgb(153,221,255); fill-opacity: 0.4"></path><path d="M-211.72206844718417,-89.09881526167524L-251.8756540642903,-64.06379288144304M-347.48602754633635,-15.526299447256473L-347.48602754633635,-9.48350013254988M-347.48602754633635,-9.48350013254988L-350.1191819050711,-7.841776802281541M-347.48602754633635,-9.48350013254988L-308.60757875015673,-11.282817440224651M-347.48602380798684,-15.526298130684475L-347.48602380798684,-9.483498815977878M-347.48602380798684,-9.483498815977878L-350.1191773296646,-7.84177600759917M-347.48602754633635,-15.526299447256473L-350.1191819050711,-13.884576116988137M-347.48602754633635,-15.526299447256473L-308.60757875015673,-11.282817440224651M-347.48602380798684,-15.526298130684475L-350.1191773296646,-13.884575322305766" style="fill:none;stroke:rgb(0,0,0);stroke-width:1;stroke-linecap:round"></path><path d="M-350.1191773296646,-7.841776007599171L-347.48602380798684,-9.483498815977885L-347.48602380798684,-15.526298130684479z" style="fill:rgb(153,221,255); fill-opacity: 0.4"></path><path d="M-347.48602297345553,-15.526298020851048L-347.4860229734555,-9.483498706144454L-350.11917649513333,-7.84177589776574z" style="fill:rgb(255,187,187); fill-opacity: 0.4"></path><path d="M-358.3141814451111,-83.22463246634453L-358.31418144511105,24.28146768662174L-311.46833211652523,-112.43215822868905z" style="fill:rgb(238,238,238); fill-opacity: 0.4"></path><path d="M-398.3891945272044,20.488756950877153h21.023695427167908v10.511847713583727h-21.023695427167908z" style="fill:rgb(255,255,255)"></path><path d="M-350.1191773296646,-13.88457532230577L-350.1191773296646,-7.841776007599171L-347.48602380798684,-15.526298130684479z" style="fill:rgb(153,221,255); fill-opacity: 0.4"></path><path d="M-347.48602297345553,-15.526298020851048L-350.11917649513333,-7.84177589776574L-350.11917649513333,-13.884575212472338z" style="fill:rgb(255,187,187); fill-opacity: 0.4"></path><path d="M-350.1191819050711,-7.841776802281541L-350.1191819050711,-13.884576116988137M-350.1191819050711,-7.841776802281541L-308.60757875015673,-11.282817440224651M-350.1191773296646,-13.884575322305766L-350.1191773296646,-7.84177600759917" style="fill:none;stroke:rgb(0,0,0);stroke-width:1;stroke-linecap:round"></path><path d="M-347.4860229734555,-9.483498706144454L-347.48602297345553,-15.526298020851048L-308.6075741292329,-11.282817497401275z" style="fill:rgb(255,187,187); fill-opacity: 0.4"></path><path d="M-350.1191819050711,-13.884576116988137L-308.60757875015673,-11.282817440224651M-105.56370877542217,0.7421635664490185L-179.7176577673149,-9.017305630942975M-179.7176577673149,-15.06010494564957L-179.7176577673149,-9.017305630942975M-179.7176577673149,-9.017305630942975L-182.35081128899267,-7.375582822564264" style="fill:none;stroke:rgb(0,0,0);stroke-width:1;stroke-linecap:round"></path><path d="M-350.11917649513333,-7.84177589776574L-347.4860229734555,-9.483498706144454L-308.6075741292329,-11.282817497401275z" style="fill:rgb(255,187,187); fill-opacity: 0.4"></path><path d="M-276.6067710822633,-5.49026350663561L-316.7603566993694,19.544758873596603L-316.7603566993694,-72.60332806949116zM-251.87565406429025,28.08429406164473L-211.72206844718417,3.0492716814125145L-211.72206844718417,-89.09881526167524z" style="fill:rgb(238,238,238); fill-opacity: 0.4"></path><path d="M-347.48602297345553,-15.526298020851048L-350.11917649513333,-13.884575212472338L-308.6075741292329,-11.282817497401275z" style="fill:rgb(255,187,187); fill-opacity: 0.4"></path><path d="M-432.8057967800429,-41.15966775772837h21.023695427167908v10.511847713583727h-21.023695427167908z" style="fill:rgb(255,255,255)"></path><path d="M-105.56370877542217,-5.300635748257577L-179.7176577673149,-15.06010494564957M-179.7176577673149,-15.06010494564957L-182.35081128899267,-13.418382137270862" style="fill:none;stroke:rgb(0,0,0);stroke-width:1;stroke-linecap:round"></path><path d="M-350.11917649513333,-13.884575212472338L-350.11917649513333,-7.84177589776574L-308.6075741292329,-11.282817497401275z" style="fill:rgb(255,187,187); fill-opacity: 0.4"></path><path d="M-179.71765776731488,-15.060104945649572L-179.71765776731488,-9.017305630942976L-182.35081128899265,-13.418382137270864z" style="fill:rgb(153,221,255); fill-opacity: 0.4"></path><path d="M-312.9265664983978,-97.17384389288226h21.023695427167393v10.511847713583727h-21.023695427167393z" style="fill:rgb(255,255,255)"></path><path d="M-179.71765776731488,-9.017305630942976L-182.35081128899265,-7.375582822564264L-182.35081128899265,-13.418382137270864z" style="fill:rgb(153,221,255); fill-opacity: 0.4"></path><path d="M-182.35081128899267,-13.418382137270862L-182.35081128899267,-7.375582822564264M-182.35081128899267,-7.375582822564264L-108.19686229709993,2.383886374827728M-358.3141814451111,-83.22463246634453L-358.31418144511105,24.281467686621735M-182.35081128899267,-13.418382137270862L-108.19686229709993,-3.6589129398788685" style="fill:none;stroke:rgb(0,0,0);stroke-width:1;stroke-linecap:round"></path><path d="M-102.70655935744222,12.24453532464953L-176.86050834933494,2.485066127257537L-176.86050834933496,-74.30500760595173zM-413.92964136714596,16.961866028357655L-358.31418144511105,24.28146768662174L-358.3141814451111,-83.22463246634453zM-251.87565406429025,-64.06379288144304L-211.72206844718417,-89.09881526167524L-276.6067710822633,-97.63835044972339zM-251.87565406429025,28.08429406164473L-316.7603566993694,19.544758873596603L-211.72206844718417,3.0492716814125145z" style="fill:rgb(238,238,238); fill-opacity: 0.4"></path><path d="M-105.56370877542217,0.7421635664490167L-179.71765776731488,-9.017305630942976L-179.71765776731488,-15.060104945649572z" style="fill:rgb(153,221,255); fill-opacity: 0.4"></path><path d="M-413.929641367146,-90.54423412460862L-413.92964136714596,16.961866028357655L-358.3141814451111,-83.22463246634453z" style="fill:rgb(238,238,238); fill-opacity: 0.4"></path><path d="M-182.35081128899265,-7.375582822564264L-179.71765776731488,-9.017305630942976L-105.56370877542217,0.7421635664490167z" style="fill:rgb(153,221,255); fill-opacity: 0.4"></path><path d="M-102.70655935744222,-64.54553840855972L-176.860508349335,-74.30500760595173M-176.860508349335,-74.30500760595173L-210.32183025496138,-53.44248860783179M-413.929641367146,-90.54423412460862L-358.3141814451111,-83.22463246634453M-243.7797510670443,-23.813018832511258L-308.66445370212347,-32.35255402055938M-308.66445370212347,-38.39535333526598L-308.66445370212347,-32.35255402055938M-308.66445370212347,-32.35255402055938L-311.2976072238012,-30.710831212180675" style="fill:none;stroke:rgb(0,0,0);stroke-width:1;stroke-linecap:round"></path><path d="M-182.35081128899265,-13.418382137270864L-108.19686229709994,-3.6589129398788702L-179.71765776731488,-15.060104945649572zM-182.35081128899265,-13.418382137270864L-182.35081128899265,-7.375582822564264L-108.19686229709994,-3.6589129398788702z" style="fill:rgb(153,221,255); fill-opacity: 0.4"></path><path d="M-243.7797510670443,-29.855818147217857L-308.66445370212347,-38.39535333526598M-308.66445370212347,-38.39535333526598L-311.2976072238012,-36.75363052688727M-316.7603566993694,-72.60332806949116L-316.7603566993694,19.5447588735966M-316.7603566993694,19.5447588735966L-251.8756540642903,28.084294061644723" style="fill:none;stroke:rgb(0,0,0);stroke-width:1;stroke-linecap:round"></path><path d="M-308.66445370212347,-38.39535333526599L-308.66445370212347,-32.35255402055938L-311.2976072238012,-36.75363052688728zM-308.66445370212347,-32.35255402055938L-311.2976072238012,-30.710831212180683L-311.2976072238012,-36.75363052688728z" style="fill:rgb(153,221,255); fill-opacity: 0.4"></path><path d="M-311.2976072238012,-36.75363052688727L-311.2976072238012,-30.710831212180675M-311.2976072238012,-30.710831212180675L-246.41290458872206,-22.17129602413255M-102.70655935744222,-64.54553840855972L-102.70655935744222,12.244535324649528M-102.70655935744222,12.244535324649528L-136.1678812630686,33.10705432276946" style="fill:none;stroke:rgb(0,0,0);stroke-width:1;stroke-linecap:round"></path><path d="M-105.56370877542217,-5.300635748257579L-105.56370877542217,0.7421635664490167L-179.71765776731488,-15.060104945649572z" style="fill:rgb(153,221,255); fill-opacity: 0.4"></path><path d="M-311.2976072238012,-36.75363052688727L-246.41290458872206,-28.214095338839144" style="fill:none;stroke:rgb(0,0,0);stroke-width:1;stroke-linecap:round"></path><path d="M-210.32183025496133,23.34758512537747L-176.86050834933494,2.485066127257537L-102.70655935744222,12.24453532464953z" style="fill:rgb(238,238,238); fill-opacity: 0.4"></path><path d="M-108.19686229709994,-3.6589129398788702L-105.56370877542217,-5.300635748257579L-179.71765776731488,-15.060104945649572zM-108.19686229709994,2.383886374827728L-182.35081128899265,-7.375582822564264L-105.56370877542217,0.7421635664490167zM-243.7797510670443,-23.81301883251126L-308.66445370212347,-32.35255402055938L-308.66445370212347,-38.39535333526599z" style="fill:rgb(153,221,255); fill-opacity: 0.4"></path><path d="M-102.70655935744222,-64.54553840855974L-102.70655935744222,12.24453532464953L-176.86050834933496,-74.30500760595173z" style="fill:rgb(238,238,238); fill-opacity: 0.4"></path><path d="M-311.2976072238012,-30.710831212180683L-308.66445370212347,-32.35255402055938L-243.7797510670443,-23.81301883251126zM-182.35081128899265,-7.375582822564264L-108.19686229709994,2.383886374827728L-108.19686229709994,-3.6589129398788702z" style="fill:rgb(153,221,255); fill-opacity: 0.4"></path><path d="M-316.7603566993694,-72.60332806949116L-251.87565406429025,-64.06379288144304L-276.6067710822633,-97.63835044972339zM-176.86050834933496,-74.30500760595173L-176.86050834933494,2.485066127257537L-210.32183025496136,-53.4424886078318z" style="fill:rgb(238,238,238); fill-opacity: 0.4"></path><path d="M-311.2976072238012,-36.75363052688728L-246.41290458872206,-28.214095338839147L-308.66445370212347,-38.39535333526599zM-311.2976072238012,-36.75363052688728L-311.2976072238012,-30.710831212180683L-246.41290458872206,-28.214095338839147z" style="fill:rgb(153,221,255); fill-opacity: 0.4"></path><path d="M-105.56370855928174,-5.300635580568004L-105.56370855928174,0.7421637341385922M-105.56370855928174,0.7421637341385922L-108.19686208095952,2.3838865425173M-105.56370855928174,0.7421637341385922L-71.18398138739221,0.7180006907108147M-105.56370877542217,-5.300635748257577L-105.56370877542217,0.7421635664490185M-105.56370877542217,0.7421635664490185L-108.19686229709993,2.383886374827728M-105.56370855928174,-5.300635580568004L-108.19686208095952,-3.6589127721892947M-105.56370855928174,-5.300635580568004L-71.18398138739221,0.7180006907108147M-105.56370877542217,-5.300635748257577L-108.19686229709993,-3.6589129398788685" style="fill:none;stroke:rgb(0,0,0);stroke-width:1;stroke-linecap:round"></path><path d="M-105.56370887730358,-5.300635761666286L-105.56370887730358,0.7421635530403098L-108.19686239898137,2.383886361419021z" style="fill:rgb(255,187,187); fill-opacity: 0.4"></path><path d="M-108.19686229709994,2.383886374827728L-105.56370877542217,0.7421635664490167L-105.56370877542217,-5.300635748257579z" style="fill:rgb(153,221,255); fill-opacity: 0.4"></path><path d="M-296.5852883028358,23.681615977130512h21.023695427167393v10.511847713583727h-21.023695427167393zM-335.6365123549324,-30.89776849055877h21.023695427167393v10.511847713583693h-21.023695427167393z" style="fill:rgb(255,255,255)"></path><path d="M-243.7797510670443,-29.85581814721786L-243.7797510670443,-23.81301883251126L-308.66445370212347,-38.39535333526599z" style="fill:rgb(153,221,255); fill-opacity: 0.4"></path><path d="M-105.56370887730358,-5.300635761666286L-108.19686239898137,2.383886361419021L-108.19686239898137,-3.6589129532875773z" style="fill:rgb(255,187,187); fill-opacity: 0.4"></path><path d="M-108.19686229709994,-3.6589129398788702L-108.19686229709994,2.383886374827728L-105.56370877542217,-5.300635748257579z" style="fill:rgb(153,221,255); fill-opacity: 0.4"></path><path d="M-108.19686208095952,2.3838865425173L-108.19686208095952,-3.6589127721892947M-108.19686208095952,2.3838865425173L-71.18398138739221,0.7180006907108147M-108.19686229709993,-3.6589129398788685L-108.19686229709993,2.383886374827728" style="fill:none;stroke:rgb(0,0,0);stroke-width:1;stroke-linecap:round"></path><path d="M-251.87565406429025,-64.06379288144304L-251.87565406429025,28.08429406164473L-211.72206844718417,-89.09881526167524z" style="fill:rgb(238,238,238); fill-opacity: 0.4"></path><path d="M-246.41290458872206,-28.214095338839147L-243.7797510670443,-29.85581814721786L-308.66445370212347,-38.39535333526599zM-246.41290458872206,-22.171296024132552L-311.2976072238012,-30.710831212180683L-243.7797510670443,-23.81301883251126z" style="fill:rgb(153,221,255); fill-opacity: 0.4"></path><path d="M-108.19686208095952,-3.6589127721892947L-71.18398138739221,0.7180006907108147" style="fill:none;stroke:rgb(0,0,0);stroke-width:1;stroke-linecap:round"></path><path d="M-311.2976072238012,-30.710831212180683L-246.41290458872206,-22.171296024132552L-246.41290458872206,-28.214095338839147z" style="fill:rgb(153,221,255); fill-opacity: 0.4"></path><path d="M-105.56370887730358,0.7421635530403098L-105.56370887730358,-5.300635761666286L-71.18398181473806,0.7180010336748491zM-108.19686239898137,2.383886361419021L-105.56370887730358,0.7421635530403098L-71.18398181473806,0.7180010336748491z" style="fill:rgb(255,187,187); fill-opacity: 0.4"></path><path d="M-176.86050834933494,2.485066127257537L-210.32183025496133,23.34758512537747L-210.32183025496136,-53.4424886078318z" style="fill:rgb(238,238,238); fill-opacity: 0.4"></path><path d="M-105.56370887730358,-5.300635761666286L-108.19686239898137,-3.6589129532875773L-71.18398181473806,0.7180010336748491z" style="fill:rgb(255,187,187); fill-opacity: 0.4"></path><path d="M-243.7797510670443,-29.855818147217857L-243.7797510670443,-23.813018832511258M-243.7797510670443,-23.813018832511258L-246.41290458872206,-22.17129602413255M-243.77974290876836,-29.855816850994323L-243.77974290876836,-23.813017596317543M-243.77974290876836,-23.813017596317543L-246.41289643044612,-22.171294787938834M-243.77974290876836,-23.813017596317543L-204.672384145302,-21.733957456174867M-102.70655935744222,-64.54553840855972L-136.16788126306864,-43.68301941043979" style="fill:none;stroke:rgb(0,0,0);stroke-width:1;stroke-linecap:round"></path><path d="M-108.19686239898137,-3.6589129532875773L-108.19686239898137,2.383886361419021L-71.18398181473806,0.7180010336748491z" style="fill:rgb(255,187,187); fill-opacity: 0.4"></path><path d="M-243.7797510670443,-29.855818147217857L-246.41290458872206,-28.214095338839144M-243.77974290876836,-29.855816850994323L-246.41289643044612,-28.214094042615613M-243.77974290876836,-29.855816850994323L-204.672384145302,-21.733957456174867M-316.7603566993694,-72.60332806949116L-251.8756540642903,-64.06379288144304" style="fill:none;stroke:rgb(0,0,0);stroke-width:1;stroke-linecap:round"></path><path d="M-316.7603566993694,-72.60332806949116L-316.7603566993694,19.544758873596603L-251.87565406429025,-64.06379288144304z" style="fill:rgb(238,238,238); fill-opacity: 0.4"></path><path d="M-209.83417053058102,-75.92675209951784h21.02369542716765v10.511847713583727h-21.02369542716765z" style="fill:rgb(255,255,255)"></path><path d="M-246.41290458872206,-22.171296024132552L-243.7797510670443,-23.81301883251126L-243.7797510670443,-29.85581814721786z" style="fill:rgb(153,221,255); fill-opacity: 0.4"></path><path d="M-243.77974978977704,-29.855817979115542L-243.77974978977704,-23.813018664408943L-246.4129033114548,-22.171295856030234z" style="fill:rgb(255,187,187); fill-opacity: 0.4"></path><path d="M-316.7603566993694,19.544758873596603L-251.87565406429025,28.08429406164473L-251.87565406429025,-64.06379288144304z" style="fill:rgb(238,238,238); fill-opacity: 0.4"></path><path d="M-251.8756540642903,-64.06379288144304L-251.8756540642903,28.084294061644723M15.578192493759051,22.659731215143815L-67.84500285494727,11.680328008407953M-67.84500285494728,-49.75172867301444L-67.84500285494727,11.680328008407953M-67.84500285494727,11.680328008407953L-94.61405937498006,28.370342580636347" style="fill:none;stroke:rgb(0,0,0);stroke-width:1;stroke-linecap:round"></path><path d="M-246.41290458872206,-28.214095338839147L-246.41290458872206,-22.171296024132552L-243.7797510670443,-29.85581814721786z" style="fill:rgb(153,221,255); fill-opacity: 0.4"></path><path d="M-243.77974978977704,-29.855817979115542L-246.4129033114548,-22.171295856030234L-246.4129033114548,-28.21409517073683z" style="fill:rgb(255,187,187); fill-opacity: 0.4"></path><path d="M-246.41290458872206,-28.214095338839144L-246.41290458872206,-22.17129602413255M-246.41289643044612,-22.171294787938834L-246.41289643044612,-28.214094042615613M-246.41289643044612,-22.171294787938834L-204.672384145302,-21.733957456174867" style="fill:none;stroke:rgb(0,0,0);stroke-width:1;stroke-linecap:round"></path><path d="M-243.77974978977704,-23.813018664408943L-243.77974978977704,-29.855817979115542L-204.67239134372167,-21.7339582982617zM-246.4129033114548,-22.171295856030234L-243.77974978977704,-23.813018664408943L-204.67239134372167,-21.7339582982617z" style="fill:rgb(255,187,187); fill-opacity: 0.4"></path><path d="M-246.41289643044612,-28.214094042615613L-204.672384145302,-21.733957456174867" style="fill:none;stroke:rgb(0,0,0);stroke-width:1;stroke-linecap:round"></path><path d="M-243.77974978977704,-29.855817979115542L-246.4129033114548,-28.21409517073683L-204.67239134372167,-21.7339582982617z" style="fill:rgb(255,187,187); fill-opacity: 0.4"></path><path d="M-136.1678812630686,33.10705432276946L-102.70655935744222,12.24453532464953L-102.70655935744222,-64.54553840855974z" style="fill:rgb(238,238,238); fill-opacity: 0.4"></path><path d="M-246.4129033114548,-28.21409517073683L-246.4129033114548,-22.171295856030234L-204.67239134372167,-21.7339582982617z" style="fill:rgb(255,187,187); fill-opacity: 0.4"></path><path d="M-136.16788126306864,-43.6830194104398L-102.70655935744222,-64.54553840855974L-176.86050834933496,-74.30500760595173zM-136.1678812630686,33.10705432276946L-210.32183025496133,23.34758512537747L-102.70655935744222,12.24453532464953z" style="fill:rgb(238,238,238); fill-opacity: 0.4"></path><path d="M-210.32183025496138,-53.44248860783179L-210.32183025496138,23.347585125377474M-210.32183025496138,23.347585125377474L-136.1678812630686,33.10705432276946" style="fill:none;stroke:rgb(0,0,0);stroke-width:1;stroke-linecap:round"></path><path d="M15.578192493759058,22.659731215143815L-67.84500285494727,11.680328008407956L-67.84500285494728,-49.75172867301445z" style="fill:rgb(238,238,238); fill-opacity: 0.4"></path><path d="M15.578192493759044,-38.77232546627858L-67.84500285494728,-49.75172867301444M-67.84500285494728,-49.75172867301444L-94.61405937498006,-33.06171410078605" style="fill:none;stroke:rgb(0,0,0);stroke-width:1;stroke-linecap:round"></path><path d="M-210.32183025496136,-53.4424886078318L-136.16788126306864,-43.6830194104398L-176.86050834933496,-74.30500760595173z" style="fill:rgb(238,238,238); fill-opacity: 0.4"></path><path d="M-229.1979843313062,-19.415935577067383h21.02369542716765v10.511847713583718h-21.02369542716765zM-185.51213847995152,28.09440864970568h21.02369542716765v10.511847713583727h-21.02369542716765z" style="fill:rgb(255,255,255)"></path><path d="M-94.61405937498006,28.370342580636347L-67.84500285494727,11.680328008407956L15.578192493759058,22.659731215143815zM-67.84500285494728,-49.75172867301445L-67.84500285494727,11.680328008407956L-94.61405937498007,-33.06171410078605z" style="fill:rgb(238,238,238); fill-opacity: 0.4"></path><path d="M-210.32183025496138,-53.44248860783179L-136.16788126306864,-43.68301941043979" style="fill:none;stroke:rgb(0,0,0);stroke-width:1;stroke-linecap:round"></path><path d="M-136.16788126306864,-43.6830194104398L-136.1678812630686,33.10705432276946L-102.70655935744222,-64.54553840855974z" style="fill:rgb(238,238,238); fill-opacity: 0.4"></path><path d="M15.578192493759044,-38.77232546627858L15.578192493759051,22.659731215143815M15.578192493759051,22.659731215143815L-11.19086402627372,39.34974578737221" style="fill:none;stroke:rgb(0,0,0);stroke-width:1;stroke-linecap:round"></path><path d="M15.578192493759051,-38.77232546627859L15.578192493759058,22.659731215143815L-67.84500285494728,-49.75172867301445zM-210.32183025496136,-53.4424886078318L-210.32183025496133,23.34758512537747L-136.16788126306864,-43.6830194104398z" style="fill:rgb(238,238,238); fill-opacity: 0.4"></path><path d="M0.05534165433652879,10.185519358299342L-83.36785369436978,-0.7938838484365189M-83.36785369436978,-6.836683163143116L-83.36785369436978,-0.7938838484365189M-83.36785369436978,-0.7938838484365189L-86.00100721604758,0.8478389599421907" style="fill:none;stroke:rgb(0,0,0);stroke-width:1;stroke-linecap:round"></path><path d="M-210.32183025496133,23.34758512537747L-136.1678812630686,33.10705432276946L-136.16788126306864,-43.6830194104398z" style="fill:rgb(238,238,238); fill-opacity: 0.4"></path><path d="M0.05534165433652879,4.142720043592744L-83.36785369436978,-6.836683163143116M-83.36785369436978,-6.836683163143116L-86.00100721604758,-5.194960354764405" style="fill:none;stroke:rgb(0,0,0);stroke-width:1;stroke-linecap:round"></path><path d="M-83.3678536943698,-6.836683163143116L-83.3678536943698,-0.7938838484365173L-86.00100721604758,-5.1949603547644045zM-83.3678536943698,-0.7938838484365173L-86.00100721604758,0.847838959942194L-86.00100721604758,-5.1949603547644045z" style="fill:rgb(153,221,255); fill-opacity: 0.4"></path><path d="M-67.84500285494727,11.680328008407956L-94.61405937498006,28.370342580636347L-94.61405937498007,-33.06171410078605z" style="fill:rgb(238,238,238); fill-opacity: 0.4"></path><path d="M-136.16788126306864,-43.68301941043979L-136.1678812630686,33.10705432276946M-86.00100721604758,-5.194960354764405L-86.00100721604758,0.8478389599421907M-86.00100721604758,0.8478389599421907L-2.577811867341252,11.827242166678051" style="fill:none;stroke:rgb(0,0,0);stroke-width:1;stroke-linecap:round"></path><path d="M-97.47253096424782,-53.45972665983156h21.02369542716752v10.511847713583693h-21.02369542716752z" style="fill:rgb(255,255,255)"></path><path d="M-86.00100721604758,-5.194960354764405L-2.577811867341252,5.784442851971454" style="fill:none;stroke:rgb(0,0,0);stroke-width:1;stroke-linecap:round"></path><path d="M0.05534165433653003,10.18551935829934L-83.3678536943698,-0.7938838484365173L-83.3678536943698,-6.836683163143116zM-86.00100721604758,0.847838959942194L-83.3678536943698,-0.7938838484365173L0.05534165433653003,10.18551935829934z" style="fill:rgb(153,221,255); fill-opacity: 0.4"></path><path d="M137.2090756586084,38.66768323707473L53.78588030990211,27.688280030338873M53.785880309902105,-33.74377665108352L53.78588030990211,27.688280030338873M53.78588030990211,27.688280030338873L27.01682378986934,44.378294602567266M15.578192493759044,-38.77232546627858L-11.190864026273726,-22.082310894050188M-94.61405937498006,-33.06171410078605L-94.61405937498006,28.370342580636347M-94.61405937498006,28.370342580636347L-11.19086402627372,39.34974578737221" style="fill:none;stroke:rgb(0,0,0);stroke-width:1;stroke-linecap:round"></path><path d="M-86.00100721604758,-5.1949603547644045L-2.577811867341248,5.784442851971453L-83.3678536943698,-6.836683163143116zM-86.00100721604758,-5.1949603547644045L-86.00100721604758,0.847838959942194L-2.577811867341248,5.784442851971453z" style="fill:rgb(153,221,255); fill-opacity: 0.4"></path><path d="M-11.19086402627372,39.3497457873722L15.578192493759058,22.659731215143815L15.578192493759051,-38.77232546627859zM-11.190864026273726,-22.082310894050188L15.578192493759051,-38.77232546627859L-67.84500285494728,-49.75172867301445zM-11.19086402627372,39.3497457873722L-94.61405937498006,28.370342580636347L15.578192493759058,22.659731215143815z" style="fill:rgb(238,238,238); fill-opacity: 0.4"></path><path d="M0.05534165433652963,4.1427200435927425L0.05534165433653003,10.18551935829934L-83.3678536943698,-6.836683163143116zM-2.577811867341248,5.784442851971453L0.05534165433652963,4.1427200435927425L-83.3678536943698,-6.836683163143116zM-2.577811867341247,11.827242166678053L-86.00100721604758,0.847838959942194L0.05534165433653003,10.18551935829934z" style="fill:rgb(153,221,255); fill-opacity: 0.4"></path><path d="M-94.61405937498007,-33.06171410078605L-11.190864026273726,-22.082310894050188L-67.84500285494728,-49.75172867301445z" style="fill:rgb(238,238,238); fill-opacity: 0.4"></path><path d="M-113.4902127091635,-6.7141690172541555h21.02369542716752v10.511847713583718h-21.02369542716752z" style="fill:rgb(255,255,255)"></path><path d="M-86.00100721604758,0.847838959942194L-2.577811867341247,11.827242166678053L-2.577811867341248,5.784442851971453z" style="fill:rgb(153,221,255); fill-opacity: 0.4"></path><path d="M137.20907565860844,38.66768323707473L53.78588030990212,27.68828003033888L53.78588030990211,-33.74377665108352z" style="fill:rgb(238,238,238); fill-opacity: 0.4"></path><path d="M137.2090756586084,-22.76437344434766L53.785880309902105,-33.74377665108352M53.785880309902105,-33.74377665108352L27.01682378986933,-17.05376207885513M133.67673968886382,2.5852224324417516L50.25354434015748,-8.394180774294108M50.25354434015748,-14.436980089000704L50.25354434015748,-8.394180774294108M50.25354434015748,-8.394180774294108L47.620390818479706,-6.752457965915398M133.67673968886382,-3.4575768822648447L50.25354434015748,-14.436980089000704M50.25354434015748,-14.436980089000704L47.620390818479706,-12.795257280621996M-94.61405937498006,-33.06171410078605L-11.190864026273726,-22.082310894050188" style="fill:none;stroke:rgb(0,0,0);stroke-width:1;stroke-linecap:round"></path><path d="M50.2535443401575,-14.436980089000706L50.2535443401575,-8.394180774294107L47.62039081847971,-12.795257280621994z" style="fill:rgb(153,221,255); fill-opacity: 0.4"></path><path d="M0.05534029604057165,4.142719728765811L0.05534029604057204,10.185518803353135M0.05534029604057204,10.185518803353135L-2.577813434901446,11.827241742204253M0.05534029604057204,10.185518803353135L36.94645363019821,13.013530145544792M0.05534165433652879,4.142720043592744L0.05534165433652879,10.185519358299342M0.05534165433652879,10.185519358299342L-2.577811867341252,11.827242166678051" style="fill:none;stroke:rgb(0,0,0);stroke-width:1;stroke-linecap:round"></path><path d="M50.2535443401575,-8.394180774294107L47.62039081847971,-6.752457965915399L47.62039081847971,-12.795257280621994z" style="fill:rgb(153,221,255); fill-opacity: 0.4"></path><path d="M-65.16974505855069,33.727134968602655h21.02369542716752v10.511847713583727h-21.02369542716752z" style="fill:rgb(255,255,255)"></path><path d="M0.05534029604057165,4.142719728765811L-2.5778134349014468,5.784442667616927M0.05534029604057165,4.142719728765811L36.94645363019821,13.013530145544792M0.05534165433652879,4.142720043592744L-2.577811867341252,5.784442851971454M47.620390818479706,-12.795257280621996L47.620390818479706,-6.752457965915398M47.620390818479706,-6.752457965915398L131.04358616718602,4.226945240820461" style="fill:none;stroke:rgb(0,0,0);stroke-width:1;stroke-linecap:round"></path><path d="M0.05534017330642732,4.142719848673012L0.05534017330642772,10.18551916337961L-2.577813348371349,11.827241971758323z" style="fill:rgb(255,187,187); fill-opacity: 0.4"></path><path d="M-2.577811867341247,11.827242166678053L0.05534165433653003,10.18551935829934L0.05534165433652963,4.1427200435927425z" style="fill:rgb(153,221,255); fill-opacity: 0.4"></path><path d="M47.620390818479706,-12.795257280621996L131.04358616718602,-1.8158540738861353" style="fill:none;stroke:rgb(0,0,0);stroke-width:1;stroke-linecap:round"></path><path d="M-94.61405937498007,-33.06171410078605L-94.61405937498006,28.370342580636347L-11.190864026273726,-22.082310894050188z" style="fill:rgb(238,238,238); fill-opacity: 0.4"></path><path d="M0.05534017330642732,4.142719848673012L-2.577813348371349,11.827241971758323L-2.57781334837135,5.7844426570517244z" style="fill:rgb(255,187,187); fill-opacity: 0.4"></path><path d="M-2.577811867341248,5.784442851971453L-2.577811867341247,11.827242166678053L0.05534165433652963,4.1427200435927425z" style="fill:rgb(153,221,255); fill-opacity: 0.4"></path><path d="M-2.577813434901446,11.827241742204253L-2.5778134349014468,5.784442667616927M-2.577813434901446,11.827241742204253L36.94645363019821,13.013530145544792M-2.577811867341252,5.784442851971454L-2.577811867341252,11.827242166678051M-2.5778134349014468,5.784442667616927L36.94645363019821,13.013530145544792" style="fill:none;stroke:rgb(0,0,0);stroke-width:1;stroke-linecap:round"></path><path d="M0.05534017330642772,10.18551916337961L0.05534017330642732,4.142719848673012L36.946454190670806,13.013530115250191zM-2.577813348371349,11.827241971758323L0.05534017330642772,10.18551916337961L36.946454190670806,13.013530115250191z" style="fill:rgb(255,187,187); fill-opacity: 0.4"></path><path d="M27.016823789869346,44.378294602567266L53.78588030990212,27.68828003033888L137.20907565860844,38.66768323707473zM53.78588030990211,-33.74377665108352L53.78588030990212,27.68828003033888L27.01682378986934,-17.053762078855122z" style="fill:rgb(238,238,238); fill-opacity: 0.4"></path><path d="M133.67673968886382,2.58522243244175L50.2535443401575,-8.394180774294107L50.2535443401575,-14.436980089000706z" style="fill:rgb(153,221,255); fill-opacity: 0.4"></path><path d="M0.05534017330642732,4.142719848673012L-2.57781334837135,5.7844426570517244L36.946454190670806,13.013530115250191z" style="fill:rgb(255,187,187); fill-opacity: 0.4"></path><path d="M-11.190864026273726,-22.082310894050188L-11.19086402627372,39.3497457873722L15.578192493759051,-38.77232546627859z" style="fill:rgb(238,238,238); fill-opacity: 0.4"></path><path d="M47.62039081847971,-6.752457965915399L50.2535443401575,-8.394180774294107L133.67673968886382,2.58522243244175z" style="fill:rgb(153,221,255); fill-opacity: 0.4"></path><path d="M-94.61405937498006,28.370342580636347L-11.19086402627372,39.3497457873722L-11.190864026273726,-22.082310894050188z" style="fill:rgb(238,238,238); fill-opacity: 0.4"></path><path d="M-2.57781334837135,5.7844426570517244L-2.577813348371349,11.827241971758323L36.946454190670806,13.013530115250191z" style="fill:rgb(255,187,187); fill-opacity: 0.4"></path><path d="M47.62039081847971,-12.795257280621994L131.04358616718605,-1.815854073886137L50.2535443401575,-14.436980089000706z" style="fill:rgb(153,221,255); fill-opacity: 0.4"></path><path d="M137.2090756586084,-22.76437344434766L137.2090756586084,38.66768323707473M137.2090756586084,38.66768323707473L110.44001913857566,55.357697809303126" style="fill:none;stroke:rgb(0,0,0);stroke-width:1;stroke-linecap:round"></path><path d="M137.20907565860844,-22.764373444347658L137.20907565860844,38.66768323707473L53.78588030990211,-33.74377665108352z" style="fill:rgb(238,238,238); fill-opacity: 0.4"></path><path d="M47.62039081847971,-12.795257280621994L47.62039081847971,-6.752457965915399L131.04358616718605,-1.815854073886137z" style="fill:rgb(153,221,255); fill-opacity: 0.4"></path><path d="M-11.190864026273726,-22.082310894050188L-11.19086402627372,39.34974578737221" style="fill:none;stroke:rgb(0,0,0);stroke-width:1;stroke-linecap:round"></path><path d="M53.78588030990212,27.68828003033888L27.016823789869346,44.378294602567266L27.01682378986934,-17.053762078855122z" style="fill:rgb(238,238,238); fill-opacity: 0.4"></path><path d="M133.67673968886382,-3.4575768822648483L133.67673968886382,2.58522243244175L50.2535443401575,-14.436980089000706z" style="fill:rgb(153,221,255); fill-opacity: 0.4"></path><path d="M24.158352200601605,-37.451774637900655h21.023695427167457v10.511847713583727h-21.023695427167457z" style="fill:rgb(255,255,255)"></path><path d="M131.04358616718605,-1.815854073886137L133.67673968886382,-3.4575768822648483L50.2535443401575,-14.436980089000706zM131.04358616718605,4.2269452408204575L47.62039081847971,-6.752457965915399L133.67673968886382,2.58522243244175zM47.62039081847971,-6.752457965915399L131.04358616718605,4.2269452408204575L131.04358616718605,-1.815854073886137z" style="fill:rgb(153,221,255); fill-opacity: 0.4"></path><path d="M258.83995882345783,54.67563525900567L175.41676347475152,43.696232052269806M175.41676347475152,-17.73582462915259L175.41676347475152,43.696232052269806M175.41676347475152,43.696232052269806L148.64770695471876,60.3862466244982M137.2090756586084,-22.76437344434766L110.44001913857566,-6.074358872119266M133.67673968886382,-3.4575768822648447L133.67673968886382,2.5852224324417516M133.67673968886382,2.5852224324417516L131.04358616718602,4.226945240820461M133.6767441153806,-3.457576643094321L133.6767441153806,2.5852231518508186M133.6767441153806,2.5852231518508186L131.0435905937028,4.226945960229527M133.6767441153806,2.5852231518508186L170.56785813274493,5.413233623482853M27.01682378986933,-17.05376207885513L27.01682378986934,44.378294602567266M27.01682378986934,44.378294602567266L110.44001913857566,55.357697809303126M133.67673968886382,-3.4575768822648447L131.04358616718602,-1.8158540738861353M133.6767441153806,-3.457576643094321L131.0435905937028,-1.81585383471561M133.6767441153806,-3.457576643094321L170.56785813274493,5.413233623482853" style="fill:none;stroke:rgb(0,0,0);stroke-width:1;stroke-linecap:round"></path><path d="M133.6767382078337,-3.4575770771845766L133.6767382078337,2.5852222375220215L131.04358468615595,4.226945045900729z" style="fill:rgb(255,187,187); fill-opacity: 0.4"></path><path d="M131.04358616718605,4.2269452408204575L133.67673968886382,2.58522243244175L133.67673968886382,-3.4575768822648483z" style="fill:rgb(153,221,255); fill-opacity: 0.4"></path><path d="M133.6767382078337,-3.4575770771845766L131.04358468615595,4.226945045900729L131.04358468615595,-1.8158542688058654z" style="fill:rgb(255,187,187); fill-opacity: 0.4"></path><path d="M131.04358616718605,-1.815854073886137L131.04358616718605,4.2269452408204575L133.67673968886382,-3.4575768822648483z" style="fill:rgb(153,221,255); fill-opacity: 0.4"></path><path d="M131.04358616718602,-1.8158540738861353L131.04358616718602,4.226945240820461M131.0435905937028,4.226945960229527L131.0435905937028,-1.81585383471561M131.0435905937028,4.226945960229527L170.56785813274493,5.413233623482853" style="fill:none;stroke:rgb(0,0,0);stroke-width:1;stroke-linecap:round"></path><path d="M110.44001913857568,55.357697809303126L137.20907565860844,38.66768323707473L137.20907565860844,-22.764373444347658zM110.44001913857566,-6.074358872119268L137.20907565860844,-22.764373444347658L53.78588030990211,-33.74377665108352zM110.44001913857568,55.357697809303126L27.016823789869346,44.378294602567266L137.20907565860844,38.66768323707473z" style="fill:rgb(238,238,238); fill-opacity: 0.4"></path><path d="M131.0435905937028,-1.81585383471561L170.56785813274493,5.413233623482853" style="fill:none;stroke:rgb(0,0,0);stroke-width:1;stroke-linecap:round"></path><path d="M133.6767382078337,2.5852222375220215L133.6767382078337,-3.4575770771845766L170.5678522251981,5.413233189392605zM131.04358468615595,4.226945045900729L133.6767382078337,2.5852222375220215L170.5678522251981,5.413233189392605zM133.6767382078337,-3.4575770771845766L131.04358468615595,-1.8158542688058654L170.5678522251981,5.413233189392605zM131.04358468615595,-1.8158542688058654L131.04358468615595,4.226945045900729L170.5678522251981,5.413233189392605z" style="fill:rgb(255,187,187); fill-opacity: 0.4"></path><path d="M27.01682378986934,-17.053762078855122L110.44001913857566,-6.074358872119268L53.78588030990211,-33.74377665108352z" style="fill:rgb(238,238,238); fill-opacity: 0.4"></path><path d="M8.140670455685942,9.293783004676765h21.023695427167425v10.511847713583727h-21.023695427167425z" style="fill:rgb(255,255,255)"></path><path d="M258.8399588234579,54.67563525900567L175.41676347475152,43.696232052269806L175.41676347475152,-17.73582462915259z" style="fill:rgb(238,238,238); fill-opacity: 0.4"></path><path d="M258.83995882345783,-6.756421422416734L175.41676347475152,-17.73582462915259M175.41676347475152,-17.73582462915259L148.64770695471876,-1.0458100569242004M27.01682378986933,-17.05376207885513L110.44001913857566,-6.074358872119266" style="fill:none;stroke:rgb(0,0,0);stroke-width:1;stroke-linecap:round"></path><path d="M56.461138106298755,49.73508699053357h21.023695427167393v10.51184771358376h-21.023695427167393z" style="fill:rgb(255,255,255)"></path><path d="M27.01682378986934,-17.053762078855122L27.016823789869346,44.378294602567266L110.44001913857566,-6.074358872119268zM148.64770695471873,60.3862466244982L175.41676347475152,43.696232052269806L258.8399588234579,54.67563525900567zM175.41676347475152,-17.73582462915259L175.41676347475152,43.696232052269806L148.64770695471873,-1.0458100569241982zM110.44001913857566,-6.074358872119268L110.44001913857568,55.357697809303126L137.20907565860844,-22.764373444347658zM27.016823789869346,44.378294602567266L110.44001913857568,55.357697809303126L110.44001913857566,-6.074358872119268z" style="fill:rgb(238,238,238); fill-opacity: 0.4"></path><path d="M258.83995882345783,-6.756421422416734L258.83995882345783,54.67563525900567M258.83995882345783,54.67563525900567L232.07090230342504,71.36564983123405" style="fill:none;stroke:rgb(0,0,0);stroke-width:1;stroke-linecap:round"></path><path d="M258.8399588234579,-6.756421422416735L258.8399588234579,54.67563525900567L175.41676347475152,-17.73582462915259z" style="fill:rgb(238,238,238); fill-opacity: 0.4"></path><path d="M247.18041667796683,19.3951837312663L163.75722132926052,8.415780524530446M163.75722132926052,2.3729812098238483L163.75722132926052,8.415780524530446M163.75722132926052,8.415780524530446L161.12406780758275,10.057503332909155M247.18041667796683,13.352384416559708L163.75722132926052,2.3729812098238483M163.75722132926052,2.3729812098238483L161.12406780758275,4.014704018202558M110.44001913857566,-6.074358872119266L110.44001913857566,55.357697809303126" style="fill:none;stroke:rgb(0,0,0);stroke-width:1;stroke-linecap:round"></path><path d="M163.75722132926052,2.372981209823851L163.75722132926052,8.415780524530447L161.12406780758275,4.014704018202562zM163.75722132926052,8.415780524530447L161.12406780758275,10.057503332909155L161.12406780758275,4.014704018202562z" style="fill:rgb(153,221,255); fill-opacity: 0.4"></path><path d="M161.12406780758275,4.014704018202558L161.12406780758275,10.057503332909155M161.12406780758275,10.057503332909155L244.54726315628906,21.036906539645013" style="fill:none;stroke:rgb(0,0,0);stroke-width:1;stroke-linecap:round"></path><path d="M175.41676347475152,43.696232052269806L148.64770695471873,60.3862466244982L148.64770695471873,-1.0458100569241982z" style="fill:rgb(238,238,238); fill-opacity: 0.4"></path><path d="M374.5477297034392,75.0564097660514L300.39378071154647,65.29694056865942M300.39378071154647,-11.493133164549844L300.39378071154647,65.29694056865942M300.39378071154647,65.29694056865942L266.93245880592,86.15945956677935M161.12406780758275,4.014704018202558L244.54726315628906,14.994107224938418" style="fill:none;stroke:rgb(0,0,0);stroke-width:1;stroke-linecap:round"></path><path d="M145.78923536545102,-21.443822615969708h21.023695427167393v10.511847713583709h-21.023695427167393z" style="fill:rgb(255,255,255)"></path><path d="M247.1804166779669,19.395183731266304L163.75722132926052,8.415780524530447L163.75722132926052,2.372981209823851zM161.12406780758275,10.057503332909155L163.75722132926052,8.415780524530447L247.1804166779669,19.395183731266304zM161.12406780758275,4.014704018202562L244.54726315628912,14.994107224938418L163.75722132926052,2.372981209823851z" style="fill:rgb(153,221,255); fill-opacity: 0.4"></path><path d="M258.83995882345783,-6.756421422416734L232.07090230342504,9.933593149811662M148.64770695471876,-1.0458100569242004L148.64770695471876,60.3862466244982M148.64770695471876,60.3862466244982L232.07090230342504,71.36564983123405" style="fill:none;stroke:rgb(0,0,0);stroke-width:1;stroke-linecap:round"></path><path d="M161.12406780758275,4.014704018202562L161.12406780758275,10.057503332909155L244.54726315628912,14.994107224938418z" style="fill:rgb(153,221,255); fill-opacity: 0.4"></path><path d="M232.0709023034251,71.36564983123405L258.8399588234579,54.67563525900567L258.8399588234579,-6.756421422416735zM232.0709023034251,9.933593149811657L258.8399588234579,-6.756421422416735L175.41676347475152,-17.73582462915259zM232.0709023034251,71.36564983123405L148.64770695471873,60.3862466244982L258.8399588234579,54.67563525900567z" style="fill:rgb(238,238,238); fill-opacity: 0.4"></path><path d="M247.1804166779669,13.352384416559707L247.1804166779669,19.395183731266304L163.75722132926052,2.372981209823851z" style="fill:rgb(153,221,255); fill-opacity: 0.4"></path><path d="M374.5477297034392,75.05640976605142L300.3937807115464,65.29694056865942L300.3937807115464,-11.49313316454985z" style="fill:rgb(238,238,238); fill-opacity: 0.4"></path><path d="M244.54726315628912,14.994107224938418L247.1804166779669,13.352384416559707L163.75722132926052,2.372981209823851zM244.54726315628912,21.036906539645013L161.12406780758275,10.057503332909155L247.1804166779669,19.395183731266304z" style="fill:rgb(153,221,255); fill-opacity: 0.4"></path><path d="M374.5477297034392,-1.7336639671578602L300.39378071154647,-11.493133164549844M300.39378071154647,-11.493133164549844L266.93245880592,9.369385833570087" style="fill:none;stroke:rgb(0,0,0);stroke-width:1;stroke-linecap:round"></path><path d="M161.12406780758275,10.057503332909155L244.54726315628912,21.036906539645013L244.54726315628912,14.994107224938418z" style="fill:rgb(153,221,255); fill-opacity: 0.4"></path><path d="M148.64770695471873,-1.0458100569241982L232.0709023034251,9.933593149811657L175.41676347475152,-17.73582462915259z" style="fill:rgb(238,238,238); fill-opacity: 0.4"></path><path d="M129.77155362053534,25.301735026607695h21.023695427167393v10.511847713583727h-21.023695427167393z" style="fill:rgb(255,255,255)"></path><path d="M247.18041667796683,13.352384416559708L247.18041667796683,19.3951837312663M247.18041667796683,19.3951837312663L244.54726315628906,21.036906539645013M247.1804241608357,13.35238620651747L247.1804241608357,19.395184560746987M247.1804241608357,19.395184560746987L244.54727063915794,21.036907369125693M247.1804241608357,19.395184560746987L284.17364045068103,18.445703102661763M148.64770695471876,-1.0458100569242004L232.07090230342504,9.933593149811662M247.18041667796683,13.352384416559708L244.54726315628906,14.994107224938418M247.1804241608357,13.35238620651747L244.54727063915794,14.994109014896182M247.1804241608357,13.35238620651747L284.17364045068103,18.445703102661763" style="fill:none;stroke:rgb(0,0,0);stroke-width:1;stroke-linecap:round"></path><path d="M247.1804151969368,13.352384221639982L247.1804151969368,19.39518353634658L244.54726167525902,21.03690634472529z" style="fill:rgb(255,187,187); fill-opacity: 0.4"></path><path d="M244.54726315628912,21.036906539645013L247.1804166779669,19.395183731266304L247.1804166779669,13.352384416559707z" style="fill:rgb(153,221,255); fill-opacity: 0.4"></path><path d="M178.09202127114833,65.74303901246451h21.023695427167134v10.511847713583727h-21.023695427167134z" style="fill:rgb(255,255,255)"></path><path d="M374.5477297034392,-1.7336639671578602L374.5477297034392,75.0564097660514M374.5477297034392,75.0564097660514L341.08640779781274,95.91892876417134" style="fill:none;stroke:rgb(0,0,0);stroke-width:1;stroke-linecap:round"></path><path d="M266.93245880592,86.15945956677935L300.3937807115464,65.29694056865942L374.5477297034392,75.05640976605142z" style="fill:rgb(238,238,238); fill-opacity: 0.4"></path><path d="M247.1804151969368,13.352384221639982L244.54726167525902,21.03690634472529L244.54726167525902,14.994107030018693z" style="fill:rgb(255,187,187); fill-opacity: 0.4"></path><path d="M244.54726315628912,14.994107224938418L244.54726315628912,21.036906539645013L247.1804166779669,13.352384416559707z" style="fill:rgb(153,221,255); fill-opacity: 0.4"></path><path d="M359.287128133768,75.59205872052489L285.13317914187525,65.8325895231329M285.13317914187525,59.7897902084263L285.13317914187525,65.8325895231329M285.13317914187525,65.8325895231329L282.50002562019745,67.47431233151161M244.54726315628906,14.994107224938418L244.54726315628906,21.036906539645013M244.54727063915794,21.036907369125693L244.54727063915794,14.994109014896182M244.54727063915794,21.036907369125693L284.17364045068103,18.445703102661763" style="fill:none;stroke:rgb(0,0,0);stroke-width:1;stroke-linecap:round"></path><path d="M148.64770695471873,-1.0458100569241982L148.64770695471873,60.3862466244982L232.0709023034251,9.933593149811657z" style="fill:rgb(238,238,238); fill-opacity: 0.4"></path><path d="M359.287128133768,69.54925940581828L285.13317914187525,59.7897902084263M285.13317914187525,59.7897902084263L282.50002562019745,61.431513016805M244.54727063915794,14.994109014896182L284.17364045068103,18.445703102661763" style="fill:none;stroke:rgb(0,0,0);stroke-width:1;stroke-linecap:round"></path><path d="M374.5477297034392,-1.733663967157851L374.5477297034392,75.05640976605142L300.3937807115464,-11.49313316454985z" style="fill:rgb(238,238,238); fill-opacity: 0.4"></path><path d="M247.1804151969368,19.39518353634658L247.1804151969368,13.352384221639982L284.17363155272284,18.445702306640584z" style="fill:rgb(255,187,187); fill-opacity: 0.4"></path><path d="M285.1331791418752,59.7897902084263L285.1331791418752,65.8325895231329L282.50002562019745,61.43151301680501z" style="fill:rgb(153,221,255); fill-opacity: 0.4"></path><path d="M244.54726167525902,21.03690634472529L247.1804151969368,19.39518353634658L284.17363155272284,18.445702306640584z" style="fill:rgb(255,187,187); fill-opacity: 0.4"></path><path d="M300.3937807115464,-11.49313316454985L300.3937807115464,65.29694056865942L266.93245880592,9.369385833570082z" style="fill:rgb(238,238,238); fill-opacity: 0.4"></path><path d="M285.1331791418752,65.8325895231329L282.50002562019745,67.47431233151161L282.50002562019745,61.43151301680501z" style="fill:rgb(153,221,255); fill-opacity: 0.4"></path><path d="M247.1804151969368,13.352384221639982L244.54726167525902,14.994107030018693L284.17363155272284,18.445702306640584z" style="fill:rgb(255,187,187); fill-opacity: 0.4"></path><path d="M282.50002562019745,61.431513016805L282.50002562019745,67.47431233151161M282.50002562019745,67.47431233151161L356.6539746120902,77.23378152890359M490.2555011255122,95.43718305554363L416.10155213361946,85.67771385815162M416.10155213361946,-6.47037308493614L416.10155213361946,85.67771385815162M416.10155213361946,85.67771385815162L375.9479665165133,110.71273623838384" style="fill:none;stroke:rgb(0,0,0);stroke-width:1;stroke-linecap:round"></path><path d="M244.54726167525902,14.994107030018693L244.54726167525902,21.03690634472529L284.17363155272284,18.445702306640584z" style="fill:rgb(255,187,187); fill-opacity: 0.4"></path><path d="M282.50002562019745,61.431513016805L356.6539746120902,71.19098221419699" style="fill:none;stroke:rgb(0,0,0);stroke-width:1;stroke-linecap:round"></path><path d="M232.0709023034251,9.933593149811657L232.0709023034251,71.36564983123405L258.8399588234579,-6.756421422416735zM148.64770695471873,60.3862466244982L232.0709023034251,71.36564983123405L232.0709023034251,9.933593149811657z" style="fill:rgb(238,238,238); fill-opacity: 0.4"></path><path d="M359.28712813376796,75.59205872052489L285.1331791418752,65.8325895231329L285.1331791418752,59.7897902084263zM282.50002562019745,67.47431233151161L285.1331791418752,65.8325895231329L359.28712813376796,75.59205872052489z" style="fill:rgb(153,221,255); fill-opacity: 0.4"></path><path d="M232.07090230342504,9.933593149811662L232.07090230342504,71.36564983123405" style="fill:none;stroke:rgb(0,0,0);stroke-width:1;stroke-linecap:round"></path><path d="M282.50002562019745,61.43151301680501L356.6539746120902,71.190982214197L285.1331791418752,59.7897902084263zM282.50002562019745,61.43151301680501L282.50002562019745,67.47431233151161L356.6539746120902,71.190982214197z" style="fill:rgb(153,221,255); fill-opacity: 0.4"></path><path d="M300.3937807115464,65.29694056865942L266.93245880592,86.15945956677935L266.93245880592,9.369385833570082z" style="fill:rgb(238,238,238); fill-opacity: 0.4"></path><path d="M374.5477297034392,-1.7336639671578602L341.08640779781274,19.128855030962075" style="fill:none;stroke:rgb(0,0,0);stroke-width:1;stroke-linecap:round"></path><path d="M267.4201185303005,-13.114877658115946h21.023695427167393v10.511847713583718h-21.023695427167393z" style="fill:rgb(255,255,255)"></path><path d="M359.28712813376796,69.54925940581829L359.28712813376796,75.59205872052489L285.1331791418752,59.7897902084263zM356.6539746120902,71.190982214197L359.28712813376796,69.54925940581829L285.1331791418752,59.7897902084263zM356.6539746120902,77.2337815289036L282.50002562019745,67.47431233151161L359.28712813376796,75.59205872052489z" style="fill:rgb(153,221,255); fill-opacity: 0.4"></path><path d="M490.2555011255122,95.43718305554363L416.10155213361946,85.67771385815162L416.10155213361946,-6.4703730849361385z" style="fill:rgb(238,238,238); fill-opacity: 0.4"></path><path d="M282.50002562019745,67.47431233151161L356.6539746120902,77.2337815289036L356.6539746120902,71.190982214197z" style="fill:rgb(153,221,255); fill-opacity: 0.4"></path><path d="M341.08640779781274,95.91892876417135L374.5477297034392,75.05640976605142L374.5477297034392,-1.733663967157851z" style="fill:rgb(238,238,238); fill-opacity: 0.4"></path><path d="M359.287128133768,69.54925940581828L359.287128133768,75.59205872052489M359.287128133768,75.59205872052489L356.6539746120902,77.23378152890359M359.2871298994188,69.5492605576334L359.2871298994188,75.59205987233999M359.2871298994188,75.59205987233999L356.653976377741,77.2337826807187M359.2871298994188,75.59205987233999L396.2089404042836,83.67984672962807M490.2555011255122,3.2890961124558586L416.10155213361946,-6.47037308493614M416.10155213361946,-6.47037308493614L375.9479665165133,18.564649295296075" style="fill:none;stroke:rgb(0,0,0);stroke-width:1;stroke-linecap:round"></path><path d="M341.08640779781274,19.128855030962082L374.5477297034392,-1.733663967157851L300.3937807115464,-11.49313316454985zM341.08640779781274,95.91892876417135L266.93245880592,86.15945956677935L374.5477297034392,75.05640976605142z" style="fill:rgb(238,238,238); fill-opacity: 0.4"></path><path d="M359.287128133768,69.54925940581828L356.6539746120902,71.19098221419699M359.2871298994188,69.5492605576334L356.653976377741,71.19098336601212M359.2871298994188,69.5492605576334L396.2089404042836,83.67984672962807" style="fill:none;stroke:rgb(0,0,0);stroke-width:1;stroke-linecap:round"></path><path d="M359.28712803188654,69.54925939240958L359.28712803188654,75.59205870711618L356.6539745102088,77.23378151549488z" style="fill:rgb(255,187,187); fill-opacity: 0.4"></path><path d="M356.6539746120902,77.2337815289036L359.28712813376796,75.59205872052489L359.28712813376796,69.54925940581829z" style="fill:rgb(153,221,255); fill-opacity: 0.4"></path><path d="M266.93245880592,9.369385833570087L266.93245880592,86.15945956677935M266.93245880592,86.15945956677935L341.08640779781274,95.91892876417134" style="fill:none;stroke:rgb(0,0,0);stroke-width:1;stroke-linecap:round"></path><path d="M359.28712803188654,69.54925939240958L356.6539745102088,77.23378151549488L356.6539745102088,71.19098220078828z" style="fill:rgb(255,187,187); fill-opacity: 0.4"></path><path d="M356.6539746120902,71.190982214197L356.6539746120902,77.2337815289036L359.28712813376796,69.54925940581829z" style="fill:rgb(153,221,255); fill-opacity: 0.4"></path><path d="M356.6539746120902,71.19098221419699L356.6539746120902,77.23378152890359M356.653976377741,77.2337826807187L356.653976377741,71.19098336601212M356.653976377741,77.2337826807187L396.2089404042836,83.67984672962807M490.2555011255122,3.2890961124558586L490.2555011255122,95.43718305554363M490.2555011255122,95.43718305554363L450.101915508406,120.47220543577583" style="fill:none;stroke:rgb(0,0,0);stroke-width:1;stroke-linecap:round"></path><path d="M359.28712803188654,75.59205870711618L359.28712803188654,69.54925939240958L396.20893857371163,83.6798472727576z" style="fill:rgb(255,187,187); fill-opacity: 0.4"></path><path d="M356.653976377741,71.19098336601212L396.2089404042836,83.67984672962807" style="fill:none;stroke:rgb(0,0,0);stroke-width:1;stroke-linecap:round"></path><path d="M356.6539745102088,77.23378151549488L359.28712803188654,75.59205870711618L396.20893857371163,83.6798472727576zM359.28712803188654,69.54925939240958L356.6539745102088,71.19098220078828L396.20893857371163,83.6798472727576zM356.6539745102088,71.19098220078828L356.6539745102088,77.23378151549488L396.20893857371163,83.6798472727576z" style="fill:rgb(255,187,187); fill-opacity: 0.4"></path><path d="M375.94796651651336,110.71273623838384L416.10155213361946,85.67771385815162L490.2555011255122,95.43718305554363zM490.2555011255122,3.2890961124558613L490.2555011255122,95.43718305554363L416.10155213361946,-6.4703730849361385zM266.93245880592,9.369385833570082L341.08640779781274,19.128855030962082L300.3937807115464,-11.49313316454985z" style="fill:rgb(238,238,238); fill-opacity: 0.4"></path><path d="M605.9632725475851,115.81795634503582L531.8093235556923,106.05848714764383M531.8093235556923,-1.4476130053224492L531.8093235556923,106.05848714764383M531.8093235556923,106.05848714764383L484.9634742271066,135.26601290998832" style="fill:none;stroke:rgb(0,0,0);stroke-width:1;stroke-linecap:round"></path><path d="M248.05630472957526,43.395938864334475h21.023695427167393v10.51184771358376h-21.023695427167393z" style="fill:rgb(255,255,255)"></path><path d="M416.10155213361946,-6.4703730849361385L416.10155213361946,85.67771385815162L375.94796651651336,18.56464929529608z" style="fill:rgb(238,238,238); fill-opacity: 0.4"></path><path d="M291.74215058093,90.90628309110753h21.023695427167393v10.511847713583794h-21.023695427167393z" style="fill:rgb(255,255,255)"></path><path d="M266.93245880592,9.369385833570087L341.08640779781274,19.128855030962075" style="fill:none;stroke:rgb(0,0,0);stroke-width:1;stroke-linecap:round"></path><path d="M341.08640779781274,19.128855030962082L341.08640779781274,95.91892876417135L374.5477297034392,-1.733663967157851zM266.93245880592,9.369385833570082L266.93245880592,86.15945956677935L341.08640779781274,19.128855030962082zM266.93245880592,86.15945956677935L341.08640779781274,95.91892876417135L341.08640779781274,19.128855030962082z" style="fill:rgb(238,238,238); fill-opacity: 0.4"></path><path d="M490.2555011255122,3.2890961124558586L450.101915508406,28.32411849268807" style="fill:none;stroke:rgb(0,0,0);stroke-width:1;stroke-linecap:round"></path><path d="M605.9632725475851,115.81795634503584L531.8093235556925,106.05848714764383L531.8093235556925,-1.4476130053224467z" style="fill:rgb(238,238,238); fill-opacity: 0.4"></path><path d="M341.08640779781274,19.128855030962075L341.08640779781274,95.91892876417134" style="fill:none;stroke:rgb(0,0,0);stroke-width:1;stroke-linecap:round"></path><path d="M416.10155213361946,85.67771385815162L375.94796651651336,110.71273623838384L375.94796651651336,18.56464929529608z" style="fill:rgb(238,238,238); fill-opacity: 0.4"></path><path d="M379.7817580966339,-6.005866346583988h21.023695427166878v10.511847713583716h-21.023695427166878z" style="fill:rgb(255,255,255)"></path><path d="M450.101915508406,120.47220543577583L490.2555011255122,95.43718305554363L490.2555011255122,3.2890961124558613z" style="fill:rgb(238,238,238); fill-opacity: 0.4"></path><path d="M458.3848457633034,101.22698933168806L384.2308967714107,91.46752013429607M384.2308967714107,85.42472081958947L384.2308967714107,91.46752013429607M384.2308967714107,91.46752013429607L381.59774324973284,93.1092429426748M605.963272547585,8.31185619206955L531.8093235556923,-1.4476130053224492M531.8093235556923,-1.4476130053224492L484.9634742271065,27.75991275702206M458.3848457633034,95.18419001698146L384.2308967714107,85.42472081958947M384.2308967714107,85.42472081958947L381.59774324973284,87.06644362796818M605.963272547585,8.31185619206955L605.9632725475851,115.81795634503582M605.9632725475851,115.81795634503582L559.1174232189993,145.02548210738033" style="fill:none;stroke:rgb(0,0,0);stroke-width:1;stroke-linecap:round"></path><path d="M384.2308967714107,85.42472081958947L384.2308967714107,91.46752013429607L381.5977432497329,87.06644362796817zM384.2308967714107,91.46752013429607L381.5977432497329,93.10924294267478L381.5977432497329,87.06644362796817z" style="fill:rgb(153,221,255); fill-opacity: 0.4"></path><path d="M381.59774324973284,87.06644362796818L381.59774324973284,93.1092429426748M381.59774324973284,93.1092429426748L455.75169224162556,102.86871214006678" style="fill:none;stroke:rgb(0,0,0);stroke-width:1;stroke-linecap:round"></path><path d="M450.101915508406,28.324118492688076L490.2555011255122,3.2890961124558613L416.10155213361946,-6.4703730849361385zM450.101915508406,120.47220543577583L375.94796651651336,110.71273623838384L490.2555011255122,95.43718305554363z" style="fill:rgb(238,238,238); fill-opacity: 0.4"></path><path d="M381.59774324973284,87.06644362796818L455.75169224162556,96.82591282536018" style="fill:none;stroke:rgb(0,0,0);stroke-width:1;stroke-linecap:round"></path><path d="M458.38484576330336,101.22698933168807L384.2308967714107,91.46752013429607L384.2308967714107,85.42472081958947z" style="fill:rgb(153,221,255); fill-opacity: 0.4"></path><path d="M605.9632725475851,8.311856192069552L605.9632725475851,115.81795634503584L531.8093235556925,-1.4476130053224467z" style="fill:rgb(238,238,238); fill-opacity: 0.4"></path><path d="M381.5977432497329,93.10924294267478L384.2308967714107,91.46752013429607L458.38484576330336,101.22698933168807z" style="fill:rgb(153,221,255); fill-opacity: 0.4"></path><path d="M484.9634742271066,135.26601290998835L531.8093235556925,106.05848714764383L605.9632725475851,115.81795634503584z" style="fill:rgb(238,238,238); fill-opacity: 0.4"></path><path d="M375.9479665165133,18.564649295296075L375.9479665165133,110.71273623838384M375.9479665165133,110.71273623838384L450.101915508406,120.47220543577583" style="fill:none;stroke:rgb(0,0,0);stroke-width:1;stroke-linecap:round"></path><path d="M381.5977432497329,87.06644362796817L455.75169224162556,96.82591282536018L384.2308967714107,85.42472081958947zM381.5977432497329,87.06644362796817L381.5977432497329,93.10924294267478L455.75169224162556,96.82591282536018z" style="fill:rgb(153,221,255); fill-opacity: 0.4"></path><path d="M721.0131679927478,130.9597785409514L644.1709625835754,120.846505452387M644.1709625835754,13.340405299420736L644.1709625835754,120.846505452387M644.1709625835754,120.846505452387L597.3251132549896,150.05403121473148" style="fill:none;stroke:rgb(0,0,0);stroke-width:1;stroke-linecap:round"></path><path d="M458.38484576330336,95.18419001698147L458.38484576330336,101.22698933168807L384.2308967714107,85.42472081958947z" style="fill:rgb(153,221,255); fill-opacity: 0.4"></path><path d="M531.8093235556925,-1.4476130053224467L531.8093235556925,106.05848714764383L484.9634742271066,27.759912757022057zM375.94796651651336,18.56464929529608L450.101915508406,28.324118492688076L416.10155213361946,-6.4703730849361385z" style="fill:rgb(238,238,238); fill-opacity: 0.4"></path><path d="M455.75169224162556,96.82591282536018L458.38484576330336,95.18419001698147L384.2308967714107,85.42472081958947zM455.75169224162556,102.86871214006678L381.5977432497329,93.10924294267478L458.38484576330336,101.22698933168807zM381.5977432497329,93.10924294267478L455.75169224162556,102.86871214006678L455.75169224162556,96.82591282536018z" style="fill:rgb(153,221,255); fill-opacity: 0.4"></path><path d="M357.07181224009923,60.27020905573946h21.023695427166878v10.511847713583727h-21.023695427166878zM400.75765809145395,115.45956034658965h21.023695427166878v10.511847713583794h-21.023695427166878z" style="fill:rgb(255,255,255)"></path><path d="M458.38484074184595,95.1841895237498L458.38484074184595,101.22698883845639M458.38484074184595,101.22698883845639L455.75168638311123,102.86871216872474M458.38484074184595,101.22698883845639L493.09088201435804,110.24596468126052M458.3848457633034,95.18419001698146L458.3848457633034,101.22698933168806M458.3848457633034,101.22698933168806L455.75169224162556,102.86871214006678M605.963272547585,8.31185619206955L559.1174232189993,37.519381954414044M458.38484074184595,95.1841895237498L455.75168638311123,96.82591285401813M458.38484074184595,95.1841895237498L493.09088201435804,110.24596468126052M458.3848457633034,95.18419001698146L455.75169224162556,96.82591282536018" style="fill:none;stroke:rgb(0,0,0);stroke-width:1;stroke-linecap:round"></path><path d="M458.384845661422,95.18419000357275L458.384845661422,101.22698931827937L455.7516921397442,102.86871212665808z" style="fill:rgb(255,187,187); fill-opacity: 0.4"></path><path d="M455.75169224162556,102.86871214006678L458.38484576330336,101.22698933168807L458.38484576330336,95.18419001698147z" style="fill:rgb(153,221,255); fill-opacity: 0.4"></path><path d="M450.101915508406,28.324118492688076L450.101915508406,120.47220543577583L490.2555011255122,3.2890961124558613z" style="fill:rgb(238,238,238); fill-opacity: 0.4"></path><path d="M458.384845661422,95.18419000357275L455.7516921397442,102.86871212665808L455.7516921397442,96.82591281195147z" style="fill:rgb(255,187,187); fill-opacity: 0.4"></path><path d="M455.75169224162556,96.82591282536018L455.75169224162556,102.86871214006678L458.38484576330336,95.18419001698147z" style="fill:rgb(153,221,255); fill-opacity: 0.4"></path><path d="M455.75168638311123,102.86871216872474L455.75168638311123,96.82591285401813M455.75168638311123,102.86871216872474L493.09088201435804,110.24596468126052M455.75169224162556,96.82591282536018L455.75169224162556,102.86871214006678M576.8095066213466,106.35636871634799L502.65555762945377,96.596899518956M502.65555762945377,90.55410020424938L502.65555762945377,96.596899518956M502.65555762945377,96.596899518956L500.022404107776,98.23862232733471M455.75168638311123,96.82591285401813L493.09088201435804,110.24596468126052M576.8095066213466,100.31356940164137L502.65555762945377,90.55410020424938M502.65555762945377,90.55410020424938L500.022404107776,92.1958230126281M375.9479665165133,18.564649295296075L450.101915508406,28.32411849268807" style="fill:none;stroke:rgb(0,0,0);stroke-width:1;stroke-linecap:round"></path><path d="M721.0131679927478,130.95977854095142L644.1709625835754,120.84650545238702L644.1709625835754,13.340405299420738z" style="fill:rgb(238,238,238); fill-opacity: 0.4"></path><path d="M458.384845661422,101.22698931827937L458.384845661422,95.18419000357275L493.09088645970377,110.24596698755131z" style="fill:rgb(255,187,187); fill-opacity: 0.4"></path><path d="M502.6555576294539,90.55410020424938L502.6555576294539,96.596899518956L500.0224041077761,92.19582301262811z" style="fill:rgb(153,221,255); fill-opacity: 0.4"></path><path d="M375.94796651651336,18.56464929529608L375.94796651651336,110.71273623838384L450.101915508406,28.324118492688076z" style="fill:rgb(238,238,238); fill-opacity: 0.4"></path><path d="M455.7516921397442,102.86871212665808L458.384845661422,101.22698931827937L493.09088645970377,110.24596698755131z" style="fill:rgb(255,187,187); fill-opacity: 0.4"></path><path d="M502.6555576294539,96.596899518956L500.0224041077761,98.23862232733471L500.0224041077761,92.19582301262811z" style="fill:rgb(153,221,255); fill-opacity: 0.4"></path><path d="M458.384845661422,95.18419000357275L455.7516921397442,96.82591281195147L493.09088645970377,110.24596698755131z" style="fill:rgb(255,187,187); fill-opacity: 0.4"></path><path d="M375.94796651651336,110.71273623838384L450.101915508406,120.47220543577583L450.101915508406,28.324118492688076z" style="fill:rgb(238,238,238); fill-opacity: 0.4"></path><path d="M500.022404107776,92.1958230126281L500.022404107776,98.23862232733471M500.022404107776,98.23862232733471L574.1763530996687,107.99809152472669" style="fill:none;stroke:rgb(0,0,0);stroke-width:1;stroke-linecap:round"></path><path d="M455.7516921397442,96.82591281195147L455.7516921397442,102.86871212665808L493.09088645970377,110.24596698755131z" style="fill:rgb(255,187,187); fill-opacity: 0.4"></path><path d="M531.8093235556925,106.05848714764383L484.9634742271066,135.26601290998835L484.9634742271066,27.759912757022057zM559.1174232189993,145.02548210738033L605.9632725475851,115.81795634503584L605.9632725475851,8.311856192069552z" style="fill:rgb(238,238,238); fill-opacity: 0.4"></path><path d="M450.101915508406,28.32411849268807L450.101915508406,120.47220543577583M500.022404107776,92.1958230126281L574.1763530996687,101.95529221002009" style="fill:none;stroke:rgb(0,0,0);stroke-width:1;stroke-linecap:round"></path><path d="M492.1433976629667,1.1031449649479539h21.023695427167393v10.511847713583718h-21.023695427167393z" style="fill:rgb(255,255,255)"></path><path d="M576.8095066213466,106.35636871634799L502.6555576294539,96.596899518956L502.6555576294539,90.55410020424938z" style="fill:rgb(153,221,255); fill-opacity: 0.4"></path><path d="M721.0131679927478,23.453678387985136L644.1709625835754,13.340405299420736M644.1709625835754,13.340405299420736L597.3251132549894,42.54793106176523" style="fill:none;stroke:rgb(0,0,0);stroke-width:1;stroke-linecap:round"></path><path d="M500.0224041077761,98.23862232733471L502.6555576294539,96.596899518956L576.8095066213466,106.35636871634799z" style="fill:rgb(153,221,255); fill-opacity: 0.4"></path><path d="M721.0131679927478,23.453678387985136L721.0131679927478,130.9597785409514M721.0131679927478,130.9597785409514L674.1673186641618,160.16730430329588" style="fill:none;stroke:rgb(0,0,0);stroke-width:1;stroke-linecap:round"></path><path d="M500.0224041077761,92.19582301262811L574.1763530996687,101.9552922100201L502.6555576294539,90.55410020424938z" style="fill:rgb(153,221,255); fill-opacity: 0.4"></path><path d="M559.1174232189993,37.51938195441405L605.9632725475851,8.311856192069552L531.8093235556925,-1.4476130053224467z" style="fill:rgb(238,238,238); fill-opacity: 0.4"></path><path d="M500.0224041077761,92.19582301262811L500.0224041077761,98.23862232733471L574.1763530996687,101.9552922100201z" style="fill:rgb(153,221,255); fill-opacity: 0.4"></path><path d="M559.1174232189993,145.02548210738033L484.9634742271066,135.26601290998835L605.9632725475851,115.81795634503584z" style="fill:rgb(238,238,238); fill-opacity: 0.4"></path><path d="M576.8095066213466,100.31356940164139L576.8095066213466,106.35636871634799L502.6555576294539,90.55410020424938z" style="fill:rgb(153,221,255); fill-opacity: 0.4"></path><path d="M597.3251132549894,150.0540312147315L644.1709625835754,120.84650545238702L721.0131679927478,130.95977854095142zM721.0131679927478,23.45367838798514L721.0131679927478,130.95977854095142L644.1709625835754,13.340405299420738z" style="fill:rgb(238,238,238); fill-opacity: 0.4"></path><path d="M574.1763530996687,101.9552922100201L576.8095066213466,100.31356940164139L502.6555576294539,90.55410020424938zM574.1763530996687,107.9980915247267L500.0224041077761,98.23862232733471L576.8095066213466,106.35636871634799zM500.0224041077761,98.23862232733471L574.1763530996687,107.9980915247267L574.1763530996687,101.9552922100201z" style="fill:rgb(153,221,255); fill-opacity: 0.4"></path><path d="M484.9634742271065,27.75991275702206L484.9634742271066,135.26601290998832M484.9634742271066,135.26601290998832L559.1174232189993,145.02548210738033M576.8095066213466,100.31356940164137L576.8095066213466,106.35636871634799M576.8095066213466,106.35636871634799L574.1763530996687,107.99809152472669M576.809523163657,100.31357097077242L576.809523163657,106.35637028547903M576.809523163657,106.35637028547903L574.1763700605078,107.99809283291292M576.809523163657,106.35637028547903L613.70063759955,109.18438097640478" style="fill:none;stroke:rgb(0,0,0);stroke-width:1;stroke-linecap:round"></path><path d="M644.1709625835754,13.340405299420738L644.1709625835754,120.84650545238702L597.3251132549894,42.54793106176523z" style="fill:rgb(238,238,238); fill-opacity: 0.4"></path><path d="M576.8095066213466,100.31356940164137L574.1763530996687,101.95529221002009M576.809523163657,100.31357097077242L574.1763700605078,101.95529351820632M576.809523163657,100.31357097077242L613.70063759955,109.18438097640478" style="fill:none;stroke:rgb(0,0,0);stroke-width:1;stroke-linecap:round"></path><path d="M576.8095065194651,100.31356938823268L576.8095065194651,106.35636870293928L574.1763529977873,107.99809151131798z" style="fill:rgb(255,187,187); fill-opacity: 0.4"></path><path d="M574.1763530996687,107.9980915247267L576.8095066213466,106.35636871634799L576.8095066213466,100.31356940164139z" style="fill:rgb(153,221,255); fill-opacity: 0.4"></path><path d="M576.8095065194651,100.31356938823268L574.1763529977873,107.99809151131798L574.1763529977873,101.9552921966114z" style="fill:rgb(255,187,187); fill-opacity: 0.4"></path><path d="M574.1763530996687,101.9552922100201L574.1763530996687,107.9980915247267L576.8095066213466,100.31356940164139z" style="fill:rgb(153,221,255); fill-opacity: 0.4"></path><path d="M574.1763530996687,101.95529221002009L574.1763530996687,107.99809152472669M574.1763700605078,107.99809283291292L574.1763700605078,101.95529351820632M574.1763700605078,107.99809283291292L613.70063759955,109.18438097640478" style="fill:none;stroke:rgb(0,0,0);stroke-width:1;stroke-linecap:round"></path><path d="M484.9634742271066,27.759912757022057L559.1174232189993,37.51938195441405L531.8093235556925,-1.4476130053224467z" style="fill:rgb(238,238,238); fill-opacity: 0.4"></path><path d="M574.1763700605078,101.95529351820632L613.70063759955,109.18438097640478" style="fill:none;stroke:rgb(0,0,0);stroke-width:1;stroke-linecap:round"></path><path d="M576.8095065194651,106.35636870293928L576.8095065194651,100.31356938823268L613.7006205368294,109.18437965480986zM574.1763529977873,107.99809151131798L576.8095065194651,106.35636870293928L613.7006205368294,109.18437965480986zM576.8095065194651,100.31356938823268L574.1763529977873,101.9552921966114L613.7006205368294,109.18437965480986zM574.1763529977873,101.9552921966114L574.1763529977873,107.99809151131798L613.7006205368294,109.18437965480986z" style="fill:rgb(255,187,187); fill-opacity: 0.4"></path><path d="M721.0131679927478,23.453678387985136L674.1673186641618,52.66120415032964" style="fill:none;stroke:rgb(0,0,0);stroke-width:1;stroke-linecap:round"></path><path d="M509.77316560197727,140.01283760207178h21.023695427167393v10.511847713583727h-21.023695427167393zM466.0873197506226,77.14447924714442h21.023695427167393v10.511847713583727h-21.023695427167393z" style="fill:rgb(255,255,255)"></path><path d="M559.1174232189993,37.51938195441405L559.1174232189993,145.02548210738033L605.9632725475851,8.311856192069552zM644.1709625835754,120.84650545238702L597.3251132549894,150.0540312147315L597.3251132549894,42.54793106176523zM674.1673186641617,160.1673043032959L721.0131679927478,130.95977854095142L721.0131679927478,23.45367838798514z" style="fill:rgb(238,238,238); fill-opacity: 0.4"></path><path d="M604.5050372292998,15.891163340557062h21.023695427167393v10.511847713583709h-21.023695427167393z" style="fill:rgb(255,255,255)"></path><path d="M484.9634742271065,27.75991275702206L559.1174232189993,37.519381954414044" style="fill:none;stroke:rgb(0,0,0);stroke-width:1;stroke-linecap:round"></path><path d="M484.9634742271066,27.759912757022057L484.9634742271066,135.26601290998835L559.1174232189993,37.51938195441405zM484.9634742271066,135.26601290998835L559.1174232189993,145.02548210738033L559.1174232189993,37.51938195441405z" style="fill:rgb(238,238,238); fill-opacity: 0.4"></path><path d="M559.1174232189993,37.519381954414044L559.1174232189993,145.02548210738033" style="fill:none;stroke:rgb(0,0,0);stroke-width:1;stroke-linecap:round"></path><path d="M674.1673186641617,52.66120415032964L721.0131679927478,23.45367838798514L644.1709625835754,13.340405299420738zM674.1673186641617,160.1673043032959L597.3251132549894,150.0540312147315L721.0131679927478,130.95977854095142z" style="fill:rgb(238,238,238); fill-opacity: 0.4"></path><path d="M597.3251132549894,42.54793106176523L597.3251132549896,150.05403121473148M597.3251132549896,150.05403121473148L674.1673186641618,160.16730430329588" style="fill:none;stroke:rgb(0,0,0);stroke-width:1;stroke-linecap:round"></path><path d="M597.3251132549894,42.54793106176523L674.1673186641617,52.66120415032964L644.1709625835754,13.340405299420738z" style="fill:rgb(238,238,238); fill-opacity: 0.4"></path><path d="M578.4489593169557,91.9324976227535h21.023695427167393v10.511847713583794h-21.023695427167393zM623.4789328385,154.97775785240117h21.023695427167393v10.511847713583727h-21.023695427167393z" style="fill:rgb(255,255,255)"></path><path d="M674.1673186641617,52.66120415032964L674.1673186641617,160.1673043032959L721.0131679927478,23.45367838798514z" style="fill:rgb(238,238,238); fill-opacity: 0.4"></path><path d="M597.3251132549894,42.54793106176523L674.1673186641618,52.66120415032964" style="fill:none;stroke:rgb(0,0,0);stroke-width:1;stroke-linecap:round"></path><path d="M597.3251132549894,42.54793106176523L597.3251132549894,150.0540312147315L674.1673186641617,52.66120415032964zM597.3251132549894,150.0540312147315L674.1673186641617,160.1673043032959L674.1673186641617,52.66120415032964z" style="fill:rgb(238,238,238); fill-opacity: 0.4"></path><path d="M674.1673186641618,52.66120415032964L674.1673186641618,160.16730430329588" style="fill:none;stroke:rgb(0,0,0);stroke-width:1;stroke-linecap:round"></path></svg>