<svg viewBox="-926.5 -466 1853 932" width="1853" height="932" style="background-color: rgb(255, 255, 255);" xmlns="http://www.w3.org/2000/svg"><path d="M-78.3228638042296,64.20253894701335L-184.61573653875752,56.945057419619M-184.61573653875752,-107.65065402482202L-184.61573653875752,56.945057419619M-184.61573653875752,56.945057419619L-258.56572742985503,77.39104013642066M-78.3228638042296,-100.39317249742767L-184.61573653875752,-107.65065402482202M-184.61573653875752,-107.65065402482202L-258.56572742985503,-87.20467130802035" style="fill:none;stroke:rgb(0,0,0);stroke-width:1;stroke-linecap:round"></path><path d="M-78.3228638042296,64.20253894701335L-184.61573653875757,56.945057419619L-184.61573653875757,-107.65065402482202zM-78.3228638042296,-100.39317249742767L-78.3228638042296,64.20253894701335L-184.61573653875757,-107.65065402482202z" style="fill:rgb(238,238,238); fill-opacity: 0.4"></path><path d="M-78.3228638042296,-100.39317249742767L-78.3228638042296,64.20253894701335M-78.3228638042296,64.20253894701335L-152.27285469532714,84.64852166381502M-100.69444116329399,-17.74765769160819L-206.9873138978219,-25.00513921900255M-206.9873138978219,-38.5743632571353L-206.9873138978219,-25.00513921900255M-206.9873138978219,-25.00513921900255L-213.0837302941743,-23.31957816926815M-100.69444116329399,-31.31688172974095L-206.9873138978219,-38.5743632571353M-206.9873138978219,-38.5743632571353L-213.0837302941743,-36.88880220740091" style="fill:none;stroke:rgb(0,0,0);stroke-width:1;stroke-linecap:round"></path><path d="M-206.98731389782196,-38.57436325713531L-206.98731389782196,-25.00513921900255L-213.08373029417436,-36.888802207400914z" style="fill:rgb(153,221,255); fill-opacity: 0.4"></path><path d="M-184.61573653875757,-107.65065402482202L-184.61573653875757,56.945057419619L-258.5657274298551,-87.20467130802035z" style="fill:rgb(238,238,238); fill-opacity: 0.4"></path><path d="M-206.98731389782196,-25.00513921900255L-213.08373029417436,-23.319578169268155L-213.08373029417436,-36.888802207400914z" style="fill:rgb(153,221,255); fill-opacity: 0.4"></path><path d="M-258.5657274298551,77.39104013642066L-184.61573653875757,56.945057419619L-78.3228638042296,64.20253894701335z" style="fill:rgb(238,238,238); fill-opacity: 0.4"></path><path d="M-213.0837302941743,-36.88880220740091L-213.0837302941743,-23.31957816926815M-213.0837302941743,-23.31957816926815L-106.7908575596464,-16.062096641873797M-213.0837302941743,-36.88880220740091L-106.7908575596464,-29.631320680006546" style="fill:none;stroke:rgb(0,0,0);stroke-width:1;stroke-linecap:round"></path><path d="M-100.69444116329399,-17.74765769160819L-206.98731389782196,-25.00513921900255L-206.98731389782196,-38.57436325713531z" style="fill:rgb(153,221,255); fill-opacity: 0.4"></path><path d="M-78.3228638042296,-100.39317249742767L-152.27285469532714,-79.94718978062599" style="fill:none;stroke:rgb(0,0,0);stroke-width:1;stroke-linecap:round"></path><path d="M-213.08373029417436,-23.319578169268155L-206.98731389782196,-25.00513921900255L-100.69444116329399,-17.74765769160819zM-213.08373029417436,-36.888802207400914L-106.7908575596464,-29.631320680006553L-206.98731389782196,-38.57436325713531zM-213.08373029417436,-36.888802207400914L-213.08373029417436,-23.319578169268155L-106.7908575596464,-29.631320680006553zM-100.69444116329399,-31.31688172974095L-100.69444116329399,-17.74765769160819L-206.98731389782196,-38.57436325713531z" style="fill:rgb(153,221,255); fill-opacity: 0.4"></path><path d="M105.28571051559572,66.80323832170447L-22.26572740620671,58.09426112788962M-22.26572740620671,-82.98777355573972L-22.26572740620671,58.09426112788962M-22.26572740620671,58.09426112788962L-85.65143222314869,75.61938871158351" style="fill:none;stroke:rgb(0,0,0);stroke-width:1;stroke-linecap:round"></path><path d="M-106.7908575596464,-29.631320680006553L-100.69444116329399,-31.31688172974095L-206.98731389782196,-38.57436325713531zM-106.7908575596464,-16.062096641873797L-213.08373029417436,-23.319578169268155L-100.69444116329399,-17.74765769160819zM-213.08373029417436,-23.319578169268155L-106.7908575596464,-16.062096641873797L-106.7908575596464,-29.631320680006553z" style="fill:rgb(153,221,255); fill-opacity: 0.4"></path><path d="M-184.61573653875757,56.945057419619L-258.5657274298551,77.39104013642066L-258.5657274298551,-87.20467130802035zM-152.27285469532714,-79.94718978062599L-78.3228638042296,-100.39317249742767L-184.61573653875757,-107.65065402482202zM-152.27285469532714,84.64852166381502L-78.3228638042296,64.20253894701335L-78.3228638042296,-100.39317249742767z" style="fill:rgb(238,238,238); fill-opacity: 0.4"></path><path d="M-100.69444116329399,-31.31688172974095L-100.69444116329399,-17.74765769160819M-100.69444116329399,-17.74765769160819L-106.7908575596464,-16.062096641873797M-100.69443707577152,-31.316882067667997L-100.69443707577152,-17.747657625140853M-100.69443707577152,-17.747657625140853L-106.79085419887339,-16.06209637447192M-100.69443707577152,-17.747657625140853L-44.05411738405794,-17.241761348637763M-100.69444116329399,-31.31688172974095L-106.7908575596464,-29.631320680006546M-100.69443707577152,-31.316882067667997L-106.79085419887339,-29.63132081699907M-100.69443707577152,-31.316882067667997L-44.05411738405794,-17.241761348637763" style="fill:none;stroke:rgb(0,0,0);stroke-width:1;stroke-linecap:round"></path><path d="M-100.694442771774,-31.316881839565003L-100.694442771774,-17.747657801432243L-106.79085916812642,-16.062096751697844z" style="fill:rgb(255,187,187); fill-opacity: 0.4"></path><path d="M-106.7908575596464,-16.062096641873797L-100.69444116329399,-17.74765769160819L-100.69444116329399,-31.31688172974095z" style="fill:rgb(153,221,255); fill-opacity: 0.4"></path><path d="M105.28571051559572,-74.27879636192485L-22.26572740620671,-82.98777355573972M-22.26572740620671,-82.98777355573972L-85.65143222314869,-65.46264597204582" style="fill:none;stroke:rgb(0,0,0);stroke-width:1;stroke-linecap:round"></path><path d="M-100.694442771774,-31.316881839565003L-106.79085916812642,-16.062096751697844L-106.79085916812642,-29.631320789830603z" style="fill:rgb(255,187,187); fill-opacity: 0.4"></path><path d="M-106.7908575596464,-29.631320680006553L-106.7908575596464,-16.062096641873797L-100.69444116329399,-31.31688172974095z" style="fill:rgb(153,221,255); fill-opacity: 0.4"></path><path d="M93.17169473923094,62.55938534695161L-34.37974318257149,53.85040815313674M-34.37974318257149,40.28118411500398L-34.37974318257149,53.85040815313674M-34.37974318257149,53.85040815313674L-40.47615957892389,55.53596920287114M-106.7908575596464,-29.631320680006546L-106.7908575596464,-16.062096641873797M-106.79085419887339,-16.06209637447192L-106.79085419887339,-29.63132081699907M-106.79085419887339,-16.06209637447192L-44.05411738405794,-17.241761348637763M93.17169473923094,48.99016130881885L-34.37974318257149,40.28118411500398M-34.37974318257149,40.28118411500398L-40.47615957892389,41.96674516473838" style="fill:none;stroke:rgb(0,0,0);stroke-width:1;stroke-linecap:round"></path><path d="M105.28571051559572,66.80323832170447L-22.265727406206707,58.09426112788962L-22.265727406206707,-82.98777355573971z" style="fill:rgb(238,238,238); fill-opacity: 0.4"></path><path d="M-106.79085419887339,-29.63132081699907L-44.05411738405794,-17.241761348637763" style="fill:none;stroke:rgb(0,0,0);stroke-width:1;stroke-linecap:round"></path><path d="M-100.694442771774,-17.747657801432243L-100.694442771774,-31.316881839565003L-44.05411694576736,-17.241761554676465z" style="fill:rgb(255,187,187); fill-opacity: 0.4"></path><path d="M-34.379743182571474,40.28118411500398L-34.379743182571474,53.85040815313674L-40.476159578923884,41.966745164738384z" style="fill:rgb(153,221,255); fill-opacity: 0.4"></path><path d="M-106.79085916812642,-16.062096751697844L-100.694442771774,-17.747657801432243L-44.05411694576736,-17.241761554676465zM-100.694442771774,-31.316881839565003L-106.79085916812642,-29.631320789830603L-44.05411694576736,-17.241761554676465z" style="fill:rgb(255,187,187); fill-opacity: 0.4"></path><path d="M-34.379743182571474,53.85040815313674L-40.476159578923884,55.53596920287113L-40.476159578923884,41.966745164738384z" style="fill:rgb(153,221,255); fill-opacity: 0.4"></path><path d="M-106.79085916812642,-29.631320789830603L-106.79085916812642,-16.062096751697844L-44.05411694576736,-17.241761554676465z" style="fill:rgb(255,187,187); fill-opacity: 0.4"></path><path d="M-40.47615957892389,41.96674516473838L-40.47615957892389,55.53596920287114M-40.47615957892389,55.53596920287114L87.07527834287855,64.244946396686" style="fill:none;stroke:rgb(0,0,0);stroke-width:1;stroke-linecap:round"></path><path d="M-152.27285469532714,84.64852166381502L-258.5657274298551,77.39104013642066L-78.3228638042296,64.20253894701335z" style="fill:rgb(238,238,238); fill-opacity: 0.4"></path><path d="M-40.47615957892389,41.96674516473838L87.07527834287855,50.675722358553244" style="fill:none;stroke:rgb(0,0,0);stroke-width:1;stroke-linecap:round"></path><path d="M-258.5657274298551,-87.20467130802035L-152.27285469532714,-79.94718978062599L-184.61573653875757,-107.65065402482202z" style="fill:rgb(238,238,238); fill-opacity: 0.4"></path><path d="M93.17169473923094,62.55938534695159L-34.379743182571474,53.85040815313674L-34.379743182571474,40.28118411500398zM-40.476159578923884,55.53596920287113L-34.379743182571474,53.85040815313674L93.17169473923094,62.55938534695159z" style="fill:rgb(153,221,255); fill-opacity: 0.4"></path><path d="M-258.56572742985503,-87.20467130802035L-258.56572742985503,77.39104013642066M-258.56572742985503,77.39104013642066L-152.27285469532714,84.64852166381502" style="fill:none;stroke:rgb(0,0,0);stroke-width:1;stroke-linecap:round"></path><path d="M105.28571051559572,-74.27879636192485L105.28571051559572,66.80323832170447L-22.265727406206707,-82.98777355573971zM-22.265727406206707,-82.98777355573971L-22.265727406206707,58.09426112788962L-85.65143222314869,-65.4626459720458z" style="fill:rgb(238,238,238); fill-opacity: 0.4"></path><path d="M-40.476159578923884,41.966745164738384L87.07527834287855,50.67572235855325L-34.379743182571474,40.28118411500398zM-40.476159578923884,41.966745164738384L-40.476159578923884,55.53596920287113L87.07527834287855,50.67572235855325z" style="fill:rgb(153,221,255); fill-opacity: 0.4"></path><path d="M105.28571051559572,-74.27879636192485L105.28571051559572,66.80323832170447M105.28571051559572,66.80323832170447L41.900005698653736,84.32836590539837" style="fill:none;stroke:rgb(0,0,0);stroke-width:1;stroke-linecap:round"></path><path d="M-85.65143222314869,75.61938871158353L-22.265727406206707,58.09426112788962L105.28571051559572,66.80323832170447z" style="fill:rgb(238,238,238); fill-opacity: 0.4"></path><path d="M93.17169473923094,48.99016130881885L93.17169473923094,62.55938534695159L-34.379743182571474,40.28118411500398z" style="fill:rgb(153,221,255); fill-opacity: 0.4"></path><path d="M-152.27285469532714,-79.94718978062599L-152.27285469532714,84.64852166381502L-78.3228638042296,-100.39317249742767z" style="fill:rgb(238,238,238); fill-opacity: 0.4"></path><path d="M87.07527834287855,50.67572235855325L93.17169473923094,48.99016130881885L-34.379743182571474,40.28118411500398zM87.07527834287855,64.24494639668599L-40.476159578923884,55.53596920287113L93.17169473923094,62.55938534695159z" style="fill:rgb(153,221,255); fill-opacity: 0.4"></path><path d="M-258.56572742985503,-87.20467130802035L-152.27285469532714,-79.94718978062599" style="fill:none;stroke:rgb(0,0,0);stroke-width:1;stroke-linecap:round"></path><path d="M-40.476159578923884,55.53596920287113L87.07527834287855,64.24494639668599L87.07527834287855,50.67572235855325z" style="fill:rgb(153,221,255); fill-opacity: 0.4"></path><path d="M105.28571051559572,-74.27879636192485L41.900005698653736,-56.75366877823096" style="fill:none;stroke:rgb(0,0,0);stroke-width:1;stroke-linecap:round"></path><path d="M-258.5657274298551,-87.20467130802035L-258.5657274298551,77.39104013642066L-152.27285469532714,-79.94718978062599z" style="fill:rgb(238,238,238); fill-opacity: 0.4"></path><path d="M93.17169756432742,48.99016075290831L93.17169756432742,62.559388026196174M93.17169756432742,62.559388026196174L87.075281167975,64.24494907593058M93.17169756432742,62.559388026196174L148.70766188262135,52.206892293979415M93.17169473923094,48.99016130881885L93.17169473923094,62.55938534695161M93.17169473923094,62.55938534695161L87.07527834287855,64.244946396686M93.17169473923094,48.99016130881885L87.07527834287855,50.675722358553244M93.17169756432742,48.99016075290831L87.075281167975,50.675721802642705M93.17169756432742,48.99016075290831L148.70766188262135,52.206892293979415" style="fill:none;stroke:rgb(0,0,0);stroke-width:1;stroke-linecap:round"></path><path d="M-22.265727406206707,58.09426112788962L-85.65143222314869,75.61938871158353L-85.65143222314869,-65.4626459720458z" style="fill:rgb(238,238,238); fill-opacity: 0.4"></path><path d="M87.07527834287855,64.24494639668599L93.17169473923094,62.55938534695159L93.17169473923094,48.99016130881885z" style="fill:rgb(153,221,255); fill-opacity: 0.4"></path><path d="M93.17169748887048,48.99016149655917L93.17169748887048,62.55938553469192L87.07528109251808,64.24494658442632z" style="fill:rgb(255,187,187); fill-opacity: 0.4"></path><path d="M-258.5657274298551,77.39104013642066L-152.27285469532714,84.64852166381502L-152.27285469532714,-79.94718978062599z" style="fill:rgb(238,238,238); fill-opacity: 0.4"></path><path d="M87.07527834287855,50.67572235855325L87.07527834287855,64.24494639668599L93.17169473923094,48.99016130881885z" style="fill:rgb(153,221,255); fill-opacity: 0.4"></path><path d="M93.17169748887048,48.99016149655917L87.07528109251808,64.24494658442632L87.07528109251808,50.67572254629357z" style="fill:rgb(255,187,187); fill-opacity: 0.4"></path><path d="M87.075281167975,64.24494907593058L87.075281167975,50.675721802642705M87.075281167975,64.24494907593058L148.70766188262135,52.206892293979415M87.07527834287855,50.675722358553244L87.07527834287855,64.244946396686M87.075281167975,50.675721802642705L148.70766188262135,52.206892293979415" style="fill:none;stroke:rgb(0,0,0);stroke-width:1;stroke-linecap:round"></path><path d="M93.17169748887048,62.55938553469192L93.17169748887048,48.99016149655917L148.70766284564706,52.20689211046876z" style="fill:rgb(255,187,187); fill-opacity: 0.4"></path><path d="M41.900005698653736,-56.75366877823095L105.28571051559572,-74.27879636192485L-22.265727406206707,-82.98777355573971z" style="fill:rgb(238,238,238); fill-opacity: 0.4"></path><path d="M-152.27285469532714,-79.94718978062599L-152.27285469532714,84.64852166381502M310.15286749570186,70.85544002392838L161.3428526870861,60.69496636487005M161.3428526870861,-56.87340449856803L161.3428526870861,60.69496636487005M161.3428526870861,60.69496636487005L108.52142813030399,75.2992404229325" style="fill:none;stroke:rgb(0,0,0);stroke-width:1;stroke-linecap:round"></path><path d="M87.07528109251808,64.24494658442632L93.17169748887048,62.55938553469192L148.70766284564706,52.20689211046876zM93.17169748887048,48.99016149655917L87.07528109251808,50.67572254629357L148.70766284564706,52.20689211046876zM87.07528109251808,50.67572254629357L87.07528109251808,64.24494658442632L148.70766284564706,52.20689211046876z" style="fill:rgb(255,187,187); fill-opacity: 0.4"></path><path d="M41.900005698653736,84.32836590539837L105.28571051559572,66.80323832170447L105.28571051559572,-74.27879636192485z" style="fill:rgb(238,238,238); fill-opacity: 0.4"></path><path d="M310.15286749570186,-46.7129308395097L161.3428526870861,-56.87340449856803M161.3428526870861,-56.87340449856803L108.52142813030399,-42.26913044050557" style="fill:none;stroke:rgb(0,0,0);stroke-width:1;stroke-linecap:round"></path><path d="M-85.65143222314869,-65.4626459720458L41.900005698653736,-56.75366877823095L-22.265727406206707,-82.98777355573971zM41.900005698653736,84.32836590539837L-85.65143222314869,75.61938871158353L105.28571051559572,66.80323832170447z" style="fill:rgb(238,238,238); fill-opacity: 0.4"></path><path d="M-85.65143222314869,-65.46264597204582L-85.65143222314869,75.61938871158351M-85.65143222314869,75.61938871158351L41.900005698653736,84.32836590539837" style="fill:none;stroke:rgb(0,0,0);stroke-width:1;stroke-linecap:round"></path><path d="M310.1528674957019,70.85544002392838L161.3428526870861,60.69496636487006L161.3428526870861,-56.87340449856802z" style="fill:rgb(238,238,238); fill-opacity: 0.4"></path><path d="M-85.65143222314869,-65.46264597204582L41.900005698653736,-56.75366877823096" style="fill:none;stroke:rgb(0,0,0);stroke-width:1;stroke-linecap:round"></path><path d="M161.3428526870861,-56.87340449856802L161.3428526870861,60.69496636487006L108.52142813030399,-42.26913044050556zM41.900005698653736,-56.75366877823095L41.900005698653736,84.32836590539837L105.28571051559572,-74.27879636192485zM-85.65143222314869,-65.4626459720458L-85.65143222314869,75.61938871158353L41.900005698653736,-56.75366877823095zM108.52142813030399,75.2992404229325L161.3428526870861,60.69496636487006L310.1528674957019,70.85544002392838zM310.1528674957019,-46.7129308395097L310.1528674957019,70.85544002392838L161.3428526870861,-56.87340449856802zM-85.65143222314869,75.61938871158353L41.900005698653736,84.32836590539837L41.900005698653736,-56.75366877823095z" style="fill:rgb(238,238,238); fill-opacity: 0.4"></path><path d="M310.15286749570186,-46.7129308395097L310.15286749570186,70.85544002392838M310.15286749570186,70.85544002392838L257.33144293891974,85.45971408199084" style="fill:none;stroke:rgb(0,0,0);stroke-width:1;stroke-linecap:round"></path><path d="M161.3428526870861,60.69496636487006L108.52142813030399,75.2992404229325L108.52142813030399,-42.26913044050556z" style="fill:rgb(238,238,238); fill-opacity: 0.4"></path><path d="M41.900005698653736,-56.75366877823096L41.900005698653736,84.32836590539837M310.15286749570186,-46.7129308395097L257.33144293891974,-32.108656781447245" style="fill:none;stroke:rgb(0,0,0);stroke-width:1;stroke-linecap:round"></path><path d="M257.33144293891974,-32.108656781447245L310.1528674957019,-46.7129308395097L161.3428526870861,-56.87340449856802z" style="fill:rgb(238,238,238); fill-opacity: 0.4"></path><path d="M108.52142813030399,-42.26913044050557L108.52142813030399,75.2992404229325M108.52142813030399,75.2992404229325L257.33144293891974,85.45971408199084" style="fill:none;stroke:rgb(0,0,0);stroke-width:1;stroke-linecap:round"></path><path d="M108.52142813030399,-42.26913044050556L257.33144293891974,-32.108656781447245L161.3428526870861,-56.87340449856802zM257.33144293891974,85.45971408199084L310.1528674957019,70.85544002392838L310.1528674957019,-46.7129308395097zM257.33144293891974,85.45971408199084L108.52142813030399,75.2992404229325L310.1528674957019,70.85544002392838z" style="fill:rgb(238,238,238); fill-opacity: 0.4"></path><path d="M108.52142813030399,-42.26913044050557L257.33144293891974,-32.108656781447245" style="fill:none;stroke:rgb(0,0,0);stroke-width:1;stroke-linecap:round"></path><path d="M108.52142813030399,-42.26913044050556L108.52142813030399,75.2992404229325L257.33144293891974,-32.108656781447245z" style="fill:rgb(238,238,238); fill-opacity: 0.4"></path><path d="M297.4384073417543,20.30854648374901L332.197331708321,22.681821803275774" style="fill:none;stroke:rgb(0,0,0);stroke-width:1;stroke-linecap:round"></path><path d="M257.33144293891974,-32.108656781447245L257.33144293891974,85.45971408199084L310.1528674957019,-46.7129308395097z" style="fill:rgb(238,238,238); fill-opacity: 0.4"></path><path d="M382.25143796404785,25.974494657411103L360.99286400211923,24.52299839187338M360.99286400211923,21.13069238234019L360.99286400211923,24.52299839187338M360.99286400211923,24.52299839187338L350.4285793814626,27.443853123112056M382.25143796404785,22.58218864787792L360.99286400211923,21.13069238234019M360.99286400211923,21.13069238234019L350.4285793814626,24.05154711357887" style="fill:none;stroke:rgb(0,0,0);stroke-width:1;stroke-linecap:round"></path><path d="M108.52142813030399,75.2992404229325L257.33144293891974,85.45971408199084L257.33144293891974,-32.108656781447245z" style="fill:rgb(238,238,238); fill-opacity: 0.4"></path><path d="M334.43694645768517,15.201521258540701L329.9577169589568,16.43995614963428L352.64375780630144,24.077866108879753z" style="fill:rgb(0,0,0)"></path><path d="M382.2514379640479,25.974494657411103L360.9928640021193,24.52299839187338L360.9928640021193,21.130692382340193z" style="fill:rgb(238,238,238); fill-opacity: 0.4"></path><path d="M328.5735587805775,26.304437303010065L332.197331708321,31.162586827108743L352.64375780630144,24.077866108879753zM329.9577169589568,16.43995614963428L328.5735587805775,26.304437303010065L352.64375780630144,24.077866108879753z" style="fill:rgb(0,0,0)"></path><path d="M382.2514379640479,22.58218864787792L382.2514379640479,25.974494657411103L360.9928640021193,21.130692382340193zM360.9928640021193,21.130692382340193L360.9928640021193,24.52299839187338L350.4285793814626,24.05154711357887z" style="fill:rgb(238,238,238); fill-opacity: 0.4"></path><path d="M382.25143796404785,22.58218864787792L382.25143796404785,25.974494657411103M382.25143796404785,25.974494657411103L371.68715334339123,28.895349388649784" style="fill:none;stroke:rgb(0,0,0);stroke-width:1;stroke-linecap:round"></path><path d="M350.4285793814626,27.443853123112056L360.9928640021193,24.52299839187338L382.2514379640479,25.974494657411103z" style="fill:rgb(238,238,238); fill-opacity: 0.4"></path><path d="M382.25143796404785,22.58218864787792L371.68715334339123,25.503043379116594" style="fill:none;stroke:rgb(0,0,0);stroke-width:1;stroke-linecap:round"></path><path d="M360.9928640021193,24.52299839187338L350.4285793814626,27.443853123112056L350.4285793814626,24.05154711357887zM371.68715334339123,25.503043379116594L382.2514379640479,22.58218864787792L360.9928640021193,21.130692382340193zM371.68715334339123,28.89534938864978L382.2514379640479,25.974494657411103L382.2514379640479,22.58218864787792zM350.4285793814626,24.05154711357887L371.68715334339123,25.503043379116594L360.9928640021193,21.130692382340193z" style="fill:rgb(238,238,238); fill-opacity: 0.4"></path><path d="M257.33144293891974,-32.108656781447245L257.33144293891974,85.45971408199084" style="fill:none;stroke:rgb(0,0,0);stroke-width:1;stroke-linecap:round"></path><path d="M371.68715334339123,28.89534938864978L350.4285793814626,27.443853123112056L382.2514379640479,25.974494657411103z" style="fill:rgb(238,238,238); fill-opacity: 0.4"></path><path d="M350.4285793814626,24.05154711357887L350.4285793814626,27.443853123112056M350.4285793814626,27.443853123112056L371.68715334339123,28.895349388649784M350.4285793814626,24.05154711357887L371.68715334339123,25.503043379116594" style="fill:none;stroke:rgb(0,0,0);stroke-width:1;stroke-linecap:round"></path><path d="M371.68715334339123,25.503043379116594L371.68715334339123,28.89534938864978L382.2514379640479,22.58218864787792zM350.4285793814626,24.05154711357887L350.4285793814626,27.443853123112056L371.68715334339123,25.503043379116594zM350.4285793814626,27.443853123112056L371.68715334339123,28.89534938864978L371.68715334339123,25.503043379116594z" style="fill:rgb(238,238,238); fill-opacity: 0.4"></path><path d="M371.68715334339123,25.503043379116594L371.68715334339123,28.895349388649784" style="fill:none;stroke:rgb(0,0,0);stroke-width:1;stroke-linecap:round"></path></svg>