<svg viewBox="-926.5 -490.5 1853 981" width="1853" height="981" style="background-color: rgb(255, 255, 255);" xmlns="http://www.w3.org/2000/svg"><path d="M-196.07847816388306,4.952401014746023L-256.5143721649372,-3.375507843853345M-256.5143721649372,-93.20881984085237L-256.5143721649372,-3.375507843853345M-256.5143721649372,-3.375507843853345L-302.1666744281259,16.224026053028417" style="fill:none;stroke:rgb(0,0,0);stroke-width:1;stroke-linecap:round"></path><path d="M-196.07847816388303,4.952401014746026L-256.5143721649372,-3.3755078438533457L-256.5143721649372,-93.20881984085237z" style="fill:rgb(238,238,238); fill-opacity: 0.4"></path><path d="M-196.07847816388306,-84.880910982253L-256.5143721649372,-93.20881984085237M-256.5143721649372,-93.20881984085237L-302.1666744281259,-73.6092859439706M-207.09875056974388,-7.887963257099324L-267.534644570798,-16.215872115698694M-267.534644570798,-21.075949867020313L-267.534644570798,-16.215872115698694M-267.534644570798,-16.215872115698694L-270.00448269202127,-15.155516480233638M-207.09875056974388,-12.748041008420937L-267.534644570798,-21.075949867020313M-267.534644570798,-21.075949867020313L-270.00448269202127,-20.01559423155525" style="fill:none;stroke:rgb(0,0,0);stroke-width:1;stroke-linecap:round"></path><path d="M-267.534644570798,-21.075949867020306L-267.534644570798,-16.21587211569869L-270.00448269202127,-20.015594231555248zM-267.534644570798,-16.21587211569869L-270.00448269202127,-15.155516480233636L-270.00448269202127,-20.015594231555248z" style="fill:rgb(153,221,255); fill-opacity: 0.4"></path><path d="M-270.00448269202127,-20.01559423155525L-270.00448269202127,-15.155516480233638M-270.00448269202127,-15.155516480233638L-209.56858869096718,-6.827607621634264M-270.00448269202127,-20.01559423155525L-209.56858869096718,-11.687685372955878M-196.07847816388306,-84.880910982253L-196.07847816388306,4.952401014746023M-196.07847816388306,4.952401014746023L-241.73078042707175,24.551934911627786" style="fill:none;stroke:rgb(0,0,0);stroke-width:1;stroke-linecap:round"></path><path d="M-207.09875056974386,-7.887963257099322L-267.534644570798,-16.21587211569869L-267.534644570798,-21.075949867020306zM-270.00448269202127,-15.155516480233636L-267.534644570798,-16.21587211569869L-207.09875056974386,-7.887963257099322z" style="fill:rgb(153,221,255); fill-opacity: 0.4"></path><path d="M-302.1666744281258,16.224026053028417L-256.5143721649372,-3.3755078438533457L-196.07847816388303,4.952401014746026zM-196.07847816388303,-84.88091098225301L-196.07847816388303,4.952401014746026L-256.5143721649372,-93.20881984085237z" style="fill:rgb(238,238,238); fill-opacity: 0.4"></path><path d="M-270.00448269202127,-20.015594231555248L-209.56858869096715,-11.687685372955876L-267.534644570798,-21.075949867020306zM-270.00448269202127,-20.015594231555248L-270.00448269202127,-15.155516480233636L-209.56858869096715,-11.687685372955876z" style="fill:rgb(153,221,255); fill-opacity: 0.4"></path><path d="M-256.5143721649372,-93.20881984085237L-256.5143721649372,-3.3755078438533457L-302.1666744281258,-73.60928594397062z" style="fill:rgb(238,238,238); fill-opacity: 0.4"></path><path d="M-207.09875056974386,-12.748041008420936L-207.09875056974386,-7.887963257099322L-267.534644570798,-21.075949867020306zM-209.56858869096715,-11.687685372955876L-207.09875056974386,-12.748041008420936L-267.534644570798,-21.075949867020306zM-209.56858869096715,-6.827607621634263L-270.00448269202127,-15.155516480233636L-207.09875056974386,-7.887963257099322zM-270.00448269202127,-15.155516480233636L-209.56858869096715,-6.827607621634263L-209.56858869096715,-11.687685372955876z" style="fill:rgb(153,221,255); fill-opacity: 0.4"></path><path d="M-99.35967792459748,14.283561240614803L-169.86822277363632,4.567667317625596M-169.86822277363632,-74.03647913477143L-169.86822277363632,4.567667317625596M-169.86822277363632,4.567667317625596L-209.81398646878603,21.717259140319157M-196.07847816388306,-84.880910982253L-241.73078042707175,-65.28137708537125M-207.09875546372749,-12.748041731683637L-207.09875546372749,-7.8879639803620245M-207.09875546372749,-7.8879639803620245L-209.56859358495075,-6.827608344896962M-207.09875546372749,-7.8879639803620245L-180.59152183320177,-8.330029796264254M-207.09875056974388,-12.748041008420937L-207.09875056974388,-7.887963257099324M-207.09875056974388,-7.887963257099324L-209.56858869096718,-6.827607621634264M-207.09875546372749,-12.748041731683637L-209.56859358495075,-11.68768609621858M-207.09875546372749,-12.748041731683637L-180.59152183320177,-8.330029796264254M-207.09875056974388,-12.748041008420937L-209.56858869096718,-11.687685372955878" style="fill:none;stroke:rgb(0,0,0);stroke-width:1;stroke-linecap:round"></path><path d="M-209.56858869096715,-6.827607621634263L-207.09875056974386,-7.887963257099322L-207.09875056974386,-12.748041008420936z" style="fill:rgb(153,221,255); fill-opacity: 0.4"></path><path d="M-207.09874926692103,-12.748040828895345L-207.09874926692103,-7.8879630775737315L-209.56858738814432,-6.827607442108673z" style="fill:rgb(255,187,187); fill-opacity: 0.4"></path><path d="M-256.5143721649372,-3.3755078438533457L-302.1666744281258,16.224026053028417L-302.1666744281258,-73.60928594397062z" style="fill:rgb(238,238,238); fill-opacity: 0.4"></path><path d="M-209.56858869096715,-11.687685372955876L-209.56858869096715,-6.827607621634263L-207.09875056974386,-12.748041008420936z" style="fill:rgb(153,221,255); fill-opacity: 0.4"></path><path d="M-207.09874926692103,-12.748040828895345L-209.56858738814432,-6.827607442108673L-209.56858738814432,-11.687685193430285z" style="fill:rgb(255,187,187); fill-opacity: 0.4"></path><path d="M-209.56859358495075,-6.827608344896962L-209.56859358495075,-11.68768609621858M-209.56859358495075,-6.827608344896962L-180.59152183320177,-8.330029796264254M-209.56858869096718,-11.687685372955878L-209.56858869096718,-6.827607621634264M-209.56859358495075,-11.68768609621858L-180.59152183320177,-8.330029796264254" style="fill:none;stroke:rgb(0,0,0);stroke-width:1;stroke-linecap:round"></path><path d="M-207.09874926692103,-7.8879630775737315L-207.09874926692103,-12.748040828895345L-180.59151551028495,-8.330029324111647zM-209.56858738814432,-6.827607442108673L-207.09874926692103,-7.8879630775737315L-180.59151551028495,-8.330029324111647zM-207.09874926692103,-12.748040828895345L-209.56858738814432,-11.687685193430285L-180.59151551028495,-8.330029324111647z" style="fill:rgb(255,187,187); fill-opacity: 0.4"></path><path d="M-241.73078042707175,24.55193491162779L-196.07847816388303,4.952401014746026L-196.07847816388303,-84.88091098225301z" style="fill:rgb(238,238,238); fill-opacity: 0.4"></path><path d="M-209.56858738814432,-11.687685193430285L-209.56858738814432,-6.827607442108673L-180.59151551028495,-8.330029324111647z" style="fill:rgb(255,187,187); fill-opacity: 0.4"></path><path d="M-241.73078042707175,-65.28137708537125L-196.07847816388303,-84.88091098225301L-256.5143721649372,-93.20881984085237zM-241.73078042707175,24.55193491162779L-302.1666744281258,16.224026053028417L-196.07847816388303,4.952401014746026zM-99.35967792459748,14.283561240614802L-169.86822277363635,4.567667317625592L-169.86822277363635,-74.03647913477144z" style="fill:rgb(238,238,238); fill-opacity: 0.4"></path><path d="M-99.35967792459748,-64.32058521178223L-169.86822277363632,-74.03647913477143M-169.86822277363632,-74.03647913477143L-209.81398646878603,-56.88688731207788M-302.1666744281259,-73.6092859439706L-302.1666744281259,16.224026053028417M-302.1666744281259,16.224026053028417L-241.73078042707175,24.551934911627786" style="fill:none;stroke:rgb(0,0,0);stroke-width:1;stroke-linecap:round"></path><path d="M-302.1666744281258,-73.60928594397062L-241.73078042707175,-65.28137708537125L-256.5143721649372,-93.20881984085237zM-209.81398646878606,21.717259140319154L-169.86822277363635,4.567667317625592L-99.35967792459748,14.283561240614802zM-169.86822277363635,-74.03647913477144L-169.86822277363635,4.567667317625592L-209.81398646878606,-56.88688731207788z" style="fill:rgb(238,238,238); fill-opacity: 0.4"></path><path d="M-99.35967792459748,-64.32058521178223L-99.35967792459748,14.283561240614803M-99.35967792459748,14.283561240614803L-139.30544161974717,31.433153063308364" style="fill:none;stroke:rgb(0,0,0);stroke-width:1;stroke-linecap:round"></path><path d="M-99.35967792459748,-64.32058521178224L-99.35967792459748,14.283561240614802L-169.86822277363635,-74.03647913477144z" style="fill:rgb(238,238,238); fill-opacity: 0.4"></path><path d="M-120.7469080561056,1.8541963380964643L-191.25545290514444,-7.861697584892743M-191.25545290514444,-12.721775336214355L-191.25545290514444,-7.861697584892743M-191.25545290514444,-7.861697584892743L-193.7252910263677,-6.801341949427685M-120.7469080561056,-3.0058814132251492L-191.25545290514444,-12.721775336214355M-191.25545290514444,-12.721775336214355L-193.7252910263677,-11.661419700749297" style="fill:none;stroke:rgb(0,0,0);stroke-width:1;stroke-linecap:round"></path><path d="M-191.25545290514447,-12.721775336214362L-191.25545290514447,-7.861697584892748L-193.72529102636773,-11.661419700749303z" style="fill:rgb(153,221,255); fill-opacity: 0.4"></path><path d="M-241.73078042707175,-65.28137708537125L-241.73078042707175,24.55193491162779L-196.07847816388303,-84.88091098225301z" style="fill:rgb(238,238,238); fill-opacity: 0.4"></path><path d="M-302.1666744281259,-73.6092859439706L-241.73078042707175,-65.28137708537125" style="fill:none;stroke:rgb(0,0,0);stroke-width:1;stroke-linecap:round"></path><path d="M-191.25545290514447,-7.861697584892748L-193.72529102636773,-6.801341949427688L-193.72529102636773,-11.661419700749303z" style="fill:rgb(153,221,255); fill-opacity: 0.4"></path><path d="M-193.7252910263677,-11.661419700749297L-193.7252910263677,-6.801341949427685M-193.7252910263677,-6.801341949427685L-123.21674617732887,2.914551973561523M-193.7252910263677,-11.661419700749297L-123.21674617732887,-1.94552577776009" style="fill:none;stroke:rgb(0,0,0);stroke-width:1;stroke-linecap:round"></path><path d="M-302.1666744281258,-73.60928594397062L-302.1666744281258,16.224026053028417L-241.73078042707175,-65.28137708537125zM-169.86822277363635,4.567667317625592L-209.81398646878606,21.717259140319154L-209.81398646878606,-56.88688731207788zM-302.1666744281258,16.224026053028417L-241.73078042707175,24.55193491162779L-241.73078042707175,-65.28137708537125z" style="fill:rgb(238,238,238); fill-opacity: 0.4"></path><path d="M-120.7469080561056,1.8541963380964643L-191.25545290514447,-7.861697584892748L-191.25545290514447,-12.721775336214362z" style="fill:rgb(153,221,255); fill-opacity: 0.4"></path><path d="M-241.73078042707175,-65.28137708537125L-241.73078042707175,24.551934911627786" style="fill:none;stroke:rgb(0,0,0);stroke-width:1;stroke-linecap:round"></path><path d="M-193.72529102636773,-6.801341949427688L-191.25545290514447,-7.861697584892748L-120.7469080561056,1.8541963380964643z" style="fill:rgb(153,221,255); fill-opacity: 0.4"></path><path d="M-99.35967792459748,-64.32058521178223L-139.30544161974717,-47.17099338908867" style="fill:none;stroke:rgb(0,0,0);stroke-width:1;stroke-linecap:round"></path><path d="M-193.72529102636773,-11.661419700749303L-123.21674617732887,-1.94552577776009L-191.25545290514447,-12.721775336214362zM-193.72529102636773,-11.661419700749303L-193.72529102636773,-6.801341949427688L-123.21674617732887,-1.94552577776009z" style="fill:rgb(153,221,255); fill-opacity: 0.4"></path><path d="M7.431771749138022,25.002706336092007L-73.14942394788551,13.898827348712963M-73.14942394788551,-53.47615355908208L-73.14942394788551,13.898827348712963M-73.14942394788551,13.898827348712963L-107.38864907499622,28.598477097218318" style="fill:none;stroke:rgb(0,0,0);stroke-width:1;stroke-linecap:round"></path><path d="M-139.30544161974717,31.433153063308364L-99.35967792459748,14.283561240614802L-99.35967792459748,-64.32058521178224zM-139.30544161974717,-47.17099338908867L-99.35967792459748,-64.32058521178224L-169.86822277363635,-74.03647913477144z" style="fill:rgb(238,238,238); fill-opacity: 0.4"></path><path d="M-209.81398646878603,-56.88688731207788L-209.81398646878603,21.717259140319157M-209.81398646878603,21.717259140319157L-139.30544161974717,31.433153063308364" style="fill:none;stroke:rgb(0,0,0);stroke-width:1;stroke-linecap:round"></path><path d="M-120.7469080561056,-3.00588141322515L-120.7469080561056,1.8541963380964643L-191.25545290514447,-12.721775336214362zM-123.21674617732887,-1.94552577776009L-120.7469080561056,-3.00588141322515L-191.25545290514447,-12.721775336214362zM-123.21674617732887,2.914551973561523L-193.72529102636773,-6.801341949427688L-120.7469080561056,1.8541963380964643z" style="fill:rgb(153,221,255); fill-opacity: 0.4"></path><path d="M-139.30544161974717,31.433153063308364L-209.81398646878606,21.717259140319154L-99.35967792459748,14.283561240614802z" style="fill:rgb(238,238,238); fill-opacity: 0.4"></path><path d="M-193.72529102636773,-6.801341949427688L-123.21674617732887,2.914551973561523L-123.21674617732887,-1.94552577776009z" style="fill:rgb(153,221,255); fill-opacity: 0.4"></path><path d="M2.3901371934452103,5.798725456899084L-78.19105850357832,-5.305153530479958M-78.19105850357832,-10.165231281801573L-78.19105850357832,-5.305153530479958M-78.19105850357832,-5.305153530479958L-80.6608966248016,-4.2447978950149M2.3901371934452103,0.9386477055774705L-78.19105850357832,-10.165231281801573M-78.19105850357832,-10.165231281801573L-80.6608966248016,-9.104875646336513" style="fill:none;stroke:rgb(0,0,0);stroke-width:1;stroke-linecap:round"></path><path d="M-78.19105850357832,-10.165231281801574L-78.19105850357832,-5.30515353047996L-80.6608966248016,-9.104875646336515z" style="fill:rgb(153,221,255); fill-opacity: 0.4"></path><path d="M7.431771749138022,-42.37227457170303L-73.14942394788551,-53.47615355908208M-73.14942394788551,-53.47615355908208L-107.38864907499622,-38.77650381057673" style="fill:none;stroke:rgb(0,0,0);stroke-width:1;stroke-linecap:round"></path><path d="M-209.81398646878606,-56.88688731207788L-139.30544161974717,-47.17099338908867L-169.86822277363635,-74.03647913477144z" style="fill:rgb(238,238,238); fill-opacity: 0.4"></path><path d="M-78.19105850357832,-5.30515353047996L-80.6608966248016,-4.2447978950149015L-80.6608966248016,-9.104875646336515z" style="fill:rgb(153,221,255); fill-opacity: 0.4"></path><path d="M-80.6608966248016,-9.104875646336513L-80.6608966248016,-4.2447978950149M-80.6608966248016,-4.2447978950149L-0.07970092777807036,6.859081092364143M-80.6608966248016,-9.104875646336513L-0.07970092777807036,1.9990033410425296M-120.7469080561056,-3.0058814132251492L-120.7469080561056,1.8541963380964643M-120.7469080561056,1.8541963380964643L-123.21674617732887,2.914551973561523M-120.74690397633496,-3.005880874890418L-120.74690397633496,1.8541968764311945M-120.74690397633496,1.8541968764311945L-123.21674219570082,2.9145525540310038M-120.74690397633496,1.8541968764311945L-92.53983898675799,1.6166347074194132" style="fill:none;stroke:rgb(0,0,0);stroke-width:1;stroke-linecap:round"></path><path d="M7.431771749138028,25.002706336092007L-73.14942394788551,13.898827348712961L-73.14942394788551,-53.47615355908208z" style="fill:rgb(238,238,238); fill-opacity: 0.4"></path><path d="M-120.7469080561056,-3.0058814132251492L-123.21674617732887,-1.94552577776009M-120.74690397633496,-3.005880874890418L-123.21674219570082,-1.9455251972906122M-120.74690397633496,-3.005880874890418L-92.53983898675799,1.6166347074194132" style="fill:none;stroke:rgb(0,0,0);stroke-width:1;stroke-linecap:round"></path><path d="M-123.21674617732887,2.914551973561523L-120.7469080561056,1.8541963380964643L-120.7469080561056,-3.00588141322515z" style="fill:rgb(153,221,255); fill-opacity: 0.4"></path><path d="M-120.74690746005017,-3.005881331090262L-120.74690746005017,1.8541964202313523L-123.21674558127344,2.9145520556964106z" style="fill:rgb(255,187,187); fill-opacity: 0.4"></path><path d="M-123.21674617732887,-1.94552577776009L-123.21674617732887,2.914551973561523L-120.7469080561056,-3.00588141322515z" style="fill:rgb(153,221,255); fill-opacity: 0.4"></path><path d="M-120.74690746005017,-3.005881331090262L-123.21674558127344,2.9145520556964106L-123.21674558127344,-1.945525695625202z" style="fill:rgb(255,187,187); fill-opacity: 0.4"></path><path d="M-123.21674617732887,-1.94552577776009L-123.21674617732887,2.914551973561523M-123.21674219570082,2.9145525540310038L-123.21674219570082,-1.9455251972906122M-123.21674219570082,2.9145525540310038L-92.53983898675799,1.6166347074194132M-123.21674219570082,-1.9455251972906122L-92.53983898675799,1.6166347074194132" style="fill:none;stroke:rgb(0,0,0);stroke-width:1;stroke-linecap:round"></path><path d="M-120.74690746005017,1.8541964202313523L-120.74690746005017,-3.005881331090262L-92.53983698176744,1.6166343738140396z" style="fill:rgb(255,187,187); fill-opacity: 0.4"></path><path d="M-209.81398646878603,-56.88688731207788L-139.30544161974717,-47.17099338908867" style="fill:none;stroke:rgb(0,0,0);stroke-width:1;stroke-linecap:round"></path><path d="M-123.21674558127344,2.9145520556964106L-120.74690746005017,1.8541964202313523L-92.53983698176744,1.6166343738140396zM-120.74690746005017,-3.005881331090262L-123.21674558127344,-1.945525695625202L-92.53983698176744,1.6166343738140396z" style="fill:rgb(255,187,187); fill-opacity: 0.4"></path><path d="M2.3901371934452156,5.798725456899083L-78.19105850357832,-5.30515353047996L-78.19105850357832,-10.165231281801574z" style="fill:rgb(153,221,255); fill-opacity: 0.4"></path><path d="M-123.21674558127344,-1.945525695625202L-123.21674558127344,2.9145520556964106L-92.53983698176744,1.6166343738140396z" style="fill:rgb(255,187,187); fill-opacity: 0.4"></path><path d="M-80.6608966248016,-4.2447978950149015L-78.19105850357832,-5.30515353047996L2.3901371934452156,5.798725456899083z" style="fill:rgb(153,221,255); fill-opacity: 0.4"></path><path d="M-73.14942394788551,-53.47615355908208L-73.14942394788551,13.898827348712961L-107.38864907499622,-38.77650381057673z" style="fill:rgb(238,238,238); fill-opacity: 0.4"></path><path d="M-80.6608966248016,-9.104875646336515L-0.07970092777806197,1.9990033410425292L-78.19105850357832,-10.165231281801574z" style="fill:rgb(153,221,255); fill-opacity: 0.4"></path><path d="M-209.81398646878606,-56.88688731207788L-209.81398646878606,21.717259140319154L-139.30544161974717,-47.17099338908867z" style="fill:rgb(238,238,238); fill-opacity: 0.4"></path><path d="M-80.6608966248016,-9.104875646336515L-80.6608966248016,-4.2447978950149015L-0.07970092777806197,1.9990033410425292z" style="fill:rgb(153,221,255); fill-opacity: 0.4"></path><path d="M-107.38864907499622,28.59847709721832L-73.14942394788551,13.898827348712961L7.431771749138028,25.002706336092007zM-139.30544161974717,-47.17099338908867L-139.30544161974717,31.433153063308364L-99.35967792459748,-64.32058521178224zM-209.81398646878606,21.717259140319154L-139.30544161974717,31.433153063308364L-139.30544161974717,-47.17099338908867zM7.431771749138028,-42.37227457170304L7.431771749138028,25.002706336092007L-73.14942394788551,-53.47615355908208z" style="fill:rgb(238,238,238); fill-opacity: 0.4"></path><path d="M7.431771749138022,-42.37227457170303L7.431771749138022,25.002706336092007M7.431771749138022,25.002706336092007L-26.807453377972696,39.70235608459737" style="fill:none;stroke:rgb(0,0,0);stroke-width:1;stroke-linecap:round"></path><path d="M2.3901371934452156,0.93864770557747L2.3901371934452156,5.798725456899083L-78.19105850357832,-10.165231281801574z" style="fill:rgb(153,221,255); fill-opacity: 0.4"></path><path d="M-73.14942394788551,13.898827348712961L-107.38864907499622,28.59847709721832L-107.38864907499622,-38.77650381057673z" style="fill:rgb(238,238,238); fill-opacity: 0.4"></path><path d="M-139.30544161974717,-47.17099338908867L-139.30544161974717,31.433153063308364" style="fill:none;stroke:rgb(0,0,0);stroke-width:1;stroke-linecap:round"></path><path d="M-0.07970092777806197,1.9990033410425292L2.3901371934452156,0.93864770557747L-78.19105850357832,-10.165231281801574zM-0.07970092777806197,6.859081092364141L-80.6608966248016,-4.2447978950149015L2.3901371934452156,5.798725456899083zM-80.6608966248016,-4.2447978950149015L-0.07970092777806197,6.859081092364141L-0.07970092777806197,1.9990033410425292z" style="fill:rgb(153,221,255); fill-opacity: 0.4"></path><path d="M2.3901371934452103,0.9386477055774705L2.3901371934452103,5.798725456899084M2.3901371934452103,5.798725456899084L-0.07970092777807036,6.859081092364143M2.390137295395512,0.9386479790151377L2.390137295395512,5.79872573033675M2.390137295395512,5.79872573033675L-0.07970082582776698,6.859081365801809M2.390137295395512,5.79872573033675L28.41156382908728,7.031438241371101M-107.38864907499622,-38.77650381057673L-107.38864907499622,28.598477097218318M-107.38864907499622,28.598477097218318L-26.807453377972696,39.70235608459737M2.3901371934452103,0.9386477055774705L-0.07970092777807036,1.9990033410425296M2.390137295395512,0.9386479790151377L-0.07970082582776698,1.9990036144801966M2.390137295395512,0.9386479790151377L28.41156382908728,7.031438241371101" style="fill:none;stroke:rgb(0,0,0);stroke-width:1;stroke-linecap:round"></path><path d="M2.3901370827332884,0.9386476903216546L2.3901370827332884,5.798725441643267L-0.07970103848998886,6.859081077108327z" style="fill:rgb(255,187,187); fill-opacity: 0.4"></path><path d="M-0.07970092777806197,6.859081092364141L2.3901371934452156,5.798725456899083L2.3901371934452156,0.93864770557747z" style="fill:rgb(153,221,255); fill-opacity: 0.4"></path><path d="M7.431771749138022,-42.37227457170303L-26.807453377972696,-27.672624823197683" style="fill:none;stroke:rgb(0,0,0);stroke-width:1;stroke-linecap:round"></path><path d="M2.3901370827332884,0.9386476903216546L-0.07970103848998886,6.859081077108327L-0.07970103848998886,1.9990033257867137z" style="fill:rgb(255,187,187); fill-opacity: 0.4"></path><path d="M-0.07970092777806197,1.9990033410425292L-0.07970092777806197,6.859081092364141L2.3901371934452156,0.93864770557747z" style="fill:rgb(153,221,255); fill-opacity: 0.4"></path><path d="M-0.07970092777807036,1.9990033410425296L-0.07970092777807036,6.859081092364143M-0.07970082582776698,6.859081365801809L-0.07970082582776698,1.9990036144801966M-0.07970082582776698,6.859081365801809L28.41156382908728,7.031438241371101M-0.07970082582776698,1.9990036144801966L28.41156382908728,7.031438241371101" style="fill:none;stroke:rgb(0,0,0);stroke-width:1;stroke-linecap:round"></path><path d="M-26.807453377972685,-27.67262482319768L7.431771749138028,-42.37227457170304L-73.14942394788551,-53.47615355908208z" style="fill:rgb(238,238,238); fill-opacity: 0.4"></path><path d="M2.3901370827332884,5.798725441643267L2.3901370827332884,0.9386476903216546L28.411564306301123,7.031438219720368z" style="fill:rgb(255,187,187); fill-opacity: 0.4"></path><path d="M124.29587242760428,37.109838716975894L33.64202588259606,24.61797466520702M33.64202588259606,-31.52784687789448L33.64202588259606,24.61797466520702M33.64202588259606,24.61797466520702L5.109336182962751,36.86768368783609" style="fill:none;stroke:rgb(0,0,0);stroke-width:1;stroke-linecap:round"></path><path d="M-0.07970103848998886,6.859081077108327L2.3901370827332884,5.798725441643267L28.411564306301123,7.031438219720368zM2.3901370827332884,0.9386476903216546L-0.07970103848998886,1.9990033257867137L28.411564306301123,7.031438219720368z" style="fill:rgb(255,187,187); fill-opacity: 0.4"></path><path d="M-26.807453377972685,39.70235608459736L-107.38864907499622,28.59847709721832L7.431771749138028,25.002706336092007z" style="fill:rgb(238,238,238); fill-opacity: 0.4"></path><path d="M-0.07970103848998886,1.9990033257867137L-0.07970103848998886,6.859081077108327L28.411564306301123,7.031438219720368z" style="fill:rgb(255,187,187); fill-opacity: 0.4"></path><path d="M-26.807453377972685,39.70235608459736L7.431771749138028,25.002706336092007L7.431771749138028,-42.37227457170304zM-107.38864907499622,-38.77650381057673L-26.807453377972685,-27.67262482319768L-73.14942394788551,-53.47615355908208z" style="fill:rgb(238,238,238); fill-opacity: 0.4"></path><path d="M-107.38864907499622,-38.77650381057673L-26.807453377972696,-27.672624823197683M124.29587242760428,-19.035982826125604L33.64202588259606,-31.52784687789448M33.64202588259606,-31.52784687789448L5.109336182962751,-19.2781378552654" style="fill:none;stroke:rgb(0,0,0);stroke-width:1;stroke-linecap:round"></path><path d="M-107.38864907499622,-38.77650381057673L-107.38864907499622,28.59847709721832L-26.807453377972685,-27.67262482319768zM124.29587242760428,37.1098387169759L33.64202588259606,24.61797466520702L33.64202588259606,-31.52784687789448zM33.64202588259606,-31.52784687789448L33.64202588259606,24.61797466520702L5.109336182962747,-19.278137855265395zM-107.38864907499622,28.59847709721832L-26.807453377972685,39.70235608459736L-26.807453377972685,-27.67262482319768zM-26.807453377972685,-27.67262482319768L-26.807453377972685,39.70235608459736L7.431771749138028,-42.37227457170304zM5.109336182962747,36.86768368783609L33.64202588259606,24.61797466520702L124.29587242760428,37.1098387169759z" style="fill:rgb(238,238,238); fill-opacity: 0.4"></path><path d="M-26.807453377972696,-27.672624823197683L-26.807453377972696,39.70235608459737" style="fill:none;stroke:rgb(0,0,0);stroke-width:1;stroke-linecap:round"></path><path d="M33.64202588259606,24.61797466520702L5.109336182962747,36.86768368783609L5.109336182962747,-19.278137855265395z" style="fill:rgb(238,238,238); fill-opacity: 0.4"></path><path d="M102.62801321595076,40.15677498272027L11.974166670942523,27.664910930951397M11.974166670942523,22.80483317962978L11.974166670942523,27.664910930951397M11.974166670942523,27.664910930951397L9.504328549719242,28.725266566416455M102.62801321595076,35.29669723139866L11.974166670942523,22.80483317962978M11.974166670942523,22.80483317962978L9.504328549719242,23.865188815094843" style="fill:none;stroke:rgb(0,0,0);stroke-width:1;stroke-linecap:round"></path><path d="M11.974166670942523,22.80483317962979L11.974166670942523,27.6649109309514L9.504328549719245,23.865188815094847zM11.974166670942523,27.6649109309514L9.504328549719245,28.725266566416458L9.504328549719245,23.865188815094847z" style="fill:rgb(153,221,255); fill-opacity: 0.4"></path><path d="M124.29587242760428,-19.035982826125597L124.29587242760428,37.1098387169759L33.64202588259606,-31.52784687789448z" style="fill:rgb(238,238,238); fill-opacity: 0.4"></path><path d="M9.504328549719242,23.865188815094843L9.504328549719242,28.725266566416455M9.504328549719242,28.725266566416455L100.15817509472747,41.21713061818534M9.504328549719242,23.865188815094843L100.15817509472747,36.35705286686372M5.109336182962751,-19.2781378552654L5.109336182962751,36.86768368783609M5.109336182962751,36.86768368783609L95.76318272797099,49.35954773960497M124.29587242760428,-19.035982826125604L124.29587242760428,37.109838716975894M124.29587242760428,37.109838716975894L95.76318272797099,49.35954773960497" style="fill:none;stroke:rgb(0,0,0);stroke-width:1;stroke-linecap:round"></path><path d="M102.62801321595076,40.15677498272028L11.974166670942523,27.6649109309514L11.974166670942523,22.80483317962979zM9.504328549719245,28.725266566416458L11.974166670942523,27.6649109309514L102.62801321595076,40.15677498272028zM9.504328549719245,23.865188815094847L100.15817509472747,36.357052866863725L11.974166670942523,22.80483317962979zM9.504328549719245,23.865188815094847L9.504328549719245,28.725266566416458L100.15817509472747,36.357052866863725z" style="fill:rgb(153,221,255); fill-opacity: 0.4"></path><path d="M5.109336182962751,-19.2781378552654L95.76318272797099,-6.786273803496525" style="fill:none;stroke:rgb(0,0,0);stroke-width:1;stroke-linecap:round"></path><path d="M5.109336182962747,-19.278137855265395L95.76318272797097,-6.786273803496523L33.64202588259606,-31.52784687789448zM95.76318272797097,-6.786273803496523L124.29587242760428,-19.035982826125597L33.64202588259606,-31.52784687789448z" style="fill:rgb(238,238,238); fill-opacity: 0.4"></path><path d="M124.29587242760428,-19.035982826125604L95.76318272797099,-6.786273803496525" style="fill:none;stroke:rgb(0,0,0);stroke-width:1;stroke-linecap:round"></path><path d="M95.76318272797097,49.35954773960498L5.109336182962747,36.86768368783609L124.29587242760428,37.1098387169759z" style="fill:rgb(238,238,238); fill-opacity: 0.4"></path><path d="M244.0132401130419,53.60658031987772L153.35939356803365,41.11471626810884M153.35939356803365,-15.031105274992653L153.35939356803365,41.11471626810884M153.35939356803365,41.11471626810884L124.82670386840033,53.36442529073792" style="fill:none;stroke:rgb(0,0,0);stroke-width:1;stroke-linecap:round"></path><path d="M95.76318272797097,49.35954773960498L124.29587242760428,37.1098387169759L124.29587242760428,-19.035982826125597z" style="fill:rgb(238,238,238); fill-opacity: 0.4"></path><path d="M102.62801321595076,35.29669723139867L102.62801321595076,40.15677498272028L11.974166670942523,22.80483317962979zM100.15817509472747,36.357052866863725L102.62801321595076,35.29669723139867L11.974166670942523,22.80483317962979zM100.15817509472747,41.21713061818534L9.504328549719245,28.725266566416458L102.62801321595076,40.15677498272028z" style="fill:rgb(153,221,255); fill-opacity: 0.4"></path><path d="M5.109336182962747,-19.278137855265395L5.109336182962747,36.86768368783609L95.76318272797097,-6.786273803496523z" style="fill:rgb(238,238,238); fill-opacity: 0.4"></path><path d="M9.504328549719245,28.725266566416458L100.15817509472747,41.21713061818534L100.15817509472747,36.357052866863725z" style="fill:rgb(153,221,255); fill-opacity: 0.4"></path><path d="M244.0132401130419,-2.539241223223779L153.35939356803365,-15.031105274992653M153.35939356803365,-15.031105274992653L124.82670386840033,-2.781396252363575" style="fill:none;stroke:rgb(0,0,0);stroke-width:1;stroke-linecap:round"></path><path d="M5.109336182962747,36.86768368783609L95.76318272797097,49.35954773960498L95.76318272797097,-6.786273803496523zM244.0132401130419,53.606580319877715L153.35939356803365,41.114716268108836L153.35939356803365,-15.031105274992658z" style="fill:rgb(238,238,238); fill-opacity: 0.4"></path><path d="M102.62801321595076,35.29669723139866L102.62801321595076,40.15677498272027M102.62801321595076,40.15677498272027L100.15817509472747,41.21713061818534M102.6280175226892,35.296698002243154L102.6280175226892,40.15677575356477M102.6280175226892,40.15677575356477L100.15817940146594,41.21713138902984M102.6280175226892,40.15677575356477L130.45662123746553,42.261792472062474M102.62801321595076,35.29669723139866L100.15817509472747,36.35705286686372M102.6280175226892,35.296698002243154L100.15817940146594,36.35705363770822M102.6280175226892,35.296698002243154L130.45662123746553,42.261792472062474" style="fill:none;stroke:rgb(0,0,0);stroke-width:1;stroke-linecap:round"></path><path d="M102.62801239847145,35.29669711875214L102.62801239847145,40.156774870073754L100.15817427724818,41.21713050553881z" style="fill:rgb(255,187,187); fill-opacity: 0.4"></path><path d="M100.15817509472747,41.21713061818534L102.62801321595076,40.15677498272028L102.62801321595076,35.29669723139867z" style="fill:rgb(153,221,255); fill-opacity: 0.4"></path><path d="M153.35939356803365,-15.031105274992658L153.35939356803365,41.114716268108836L124.82670386840033,-2.7813962523635793zM95.76318272797097,-6.786273803496523L95.76318272797097,49.35954773960498L124.29587242760428,-19.035982826125597z" style="fill:rgb(238,238,238); fill-opacity: 0.4"></path><path d="M235.66223132038223,9.794426753484908L145.008384775374,-2.6974372982839685M145.008384775374,-7.557515049605583L145.008384775374,-2.6974372982839685M145.008384775374,-2.6974372982839685L142.53854665415074,-1.6370816628189093" style="fill:none;stroke:rgb(0,0,0);stroke-width:1;stroke-linecap:round"></path><path d="M102.62801239847145,35.29669711875214L100.15817427724818,41.21713050553881L100.15817427724818,36.3570527542172z" style="fill:rgb(255,187,187); fill-opacity: 0.4"></path><path d="M100.15817509472747,36.357052866863725L100.15817509472747,41.21713061818534L102.62801321595076,35.29669723139867z" style="fill:rgb(153,221,255); fill-opacity: 0.4"></path><path d="M100.15817509472747,36.35705286686372L100.15817509472747,41.21713061818534M100.15817940146594,41.21713138902984L100.15817940146594,36.35705363770822M100.15817940146594,41.21713138902984L130.45662123746553,42.261792472062474M235.66223132038223,4.9343490021632945L145.008384775374,-7.557515049605583M145.008384775374,-7.557515049605583L142.53854665415074,-6.497159414140523M100.15817940146594,36.35705363770822L130.45662123746553,42.261792472062474" style="fill:none;stroke:rgb(0,0,0);stroke-width:1;stroke-linecap:round"></path><path d="M145.008384775374,-7.557515049605583L145.008384775374,-2.6974372982839703L142.53854665415074,-6.4971594141405244z" style="fill:rgb(153,221,255); fill-opacity: 0.4"></path><path d="M102.62801239847145,40.156774870073754L102.62801239847145,35.29669711875214L130.45661611324778,42.26179158857146z" style="fill:rgb(255,187,187); fill-opacity: 0.4"></path><path d="M145.008384775374,-2.6974372982839703L142.53854665415074,-1.6370816628189118L142.53854665415074,-6.4971594141405244z" style="fill:rgb(153,221,255); fill-opacity: 0.4"></path><path d="M100.15817427724818,41.21713050553881L102.62801239847145,40.156774870073754L130.45661611324778,42.26179158857146z" style="fill:rgb(255,187,187); fill-opacity: 0.4"></path><path d="M142.53854665415074,-6.497159414140523L142.53854665415074,-1.6370816628189093M142.53854665415074,-1.6370816628189093L233.19239319915894,10.85478238894997" style="fill:none;stroke:rgb(0,0,0);stroke-width:1;stroke-linecap:round"></path><path d="M102.62801239847145,35.29669711875214L100.15817427724818,36.3570527542172L130.45661611324778,42.26179158857146z" style="fill:rgb(255,187,187); fill-opacity: 0.4"></path><path d="M142.53854665415074,-6.497159414140523L233.19239319915894,5.994704637628354" style="fill:none;stroke:rgb(0,0,0);stroke-width:1;stroke-linecap:round"></path><path d="M100.15817427724818,36.3570527542172L100.15817427724818,41.21713050553881L130.45661611324778,42.26179158857146z" style="fill:rgb(255,187,187); fill-opacity: 0.4"></path><path d="M95.76318272797099,-6.786273803496525L95.76318272797099,49.35954773960497" style="fill:none;stroke:rgb(0,0,0);stroke-width:1;stroke-linecap:round"></path><path d="M124.82670386840033,53.36442529073792L153.35939356803365,41.114716268108836L244.0132401130419,53.606580319877715zM153.35939356803365,41.114716268108836L124.82670386840033,53.36442529073792L124.82670386840033,-2.7813962523635793zM244.0132401130419,-2.539241223223783L244.0132401130419,53.606580319877715L153.35939356803365,-15.031105274992658z" style="fill:rgb(238,238,238); fill-opacity: 0.4"></path><path d="M235.6622313203823,9.794426753484903L145.008384775374,-2.6974372982839703L145.008384775374,-7.557515049605583zM142.53854665415074,-1.6370816628189118L145.008384775374,-2.6974372982839703L235.6622313203823,9.794426753484903zM142.53854665415074,-6.4971594141405244L233.192393199159,5.994704637628349L145.008384775374,-7.557515049605583zM142.53854665415074,-6.4971594141405244L142.53854665415074,-1.6370816628189118L233.192393199159,5.994704637628349z" style="fill:rgb(153,221,255); fill-opacity: 0.4"></path><path d="M124.82670386840033,-2.781396252363575L124.82670386840033,53.36442529073792M124.82670386840033,53.36442529073792L215.48055041340857,65.8562893425068M244.0132401130419,-2.539241223223779L244.0132401130419,53.60658031987772M244.0132401130419,53.60658031987772L215.48055041340857,65.8562893425068M356.5112253710009,73.10494627518904L275.9300296739773,62.00106728781M275.9300296739773,-5.37391361998505L275.9300296739773,62.00106728781M275.9300296739773,62.00106728781L241.69080454686656,76.70071703631534" style="fill:none;stroke:rgb(0,0,0);stroke-width:1;stroke-linecap:round"></path><path d="M235.6622313203823,4.934349002163291L235.6622313203823,9.794426753484903L145.008384775374,-7.557515049605583zM233.192393199159,5.994704637628349L235.6622313203823,4.934349002163291L145.008384775374,-7.557515049605583zM233.192393199159,10.85478238894996L142.53854665415074,-1.6370816628189118L235.6622313203823,9.794426753484903z" style="fill:rgb(153,221,255); fill-opacity: 0.4"></path><path d="M124.82670386840033,-2.781396252363575L215.48055041340857,9.710467799405299" style="fill:none;stroke:rgb(0,0,0);stroke-width:1;stroke-linecap:round"></path><path d="M124.82670386840033,-2.7813962523635793L215.4805504134086,9.710467799405293L153.35939356803365,-15.031105274992658zM215.4805504134086,9.710467799405293L244.0132401130419,-2.539241223223783L153.35939356803365,-15.031105274992658z" style="fill:rgb(238,238,238); fill-opacity: 0.4"></path><path d="M244.0132401130419,-2.539241223223779L215.48055041340857,9.710467799405299" style="fill:none;stroke:rgb(0,0,0);stroke-width:1;stroke-linecap:round"></path><path d="M142.53854665415074,-1.6370816628189118L233.192393199159,10.85478238894996L233.192393199159,5.994704637628349z" style="fill:rgb(153,221,255); fill-opacity: 0.4"></path><path d="M215.4805504134086,65.85628934250678L124.82670386840033,53.36442529073792L244.0132401130419,53.606580319877715zM215.4805504134086,65.85628934250678L244.0132401130419,53.606580319877715L244.0132401130419,-2.539241223223783z" style="fill:rgb(238,238,238); fill-opacity: 0.4"></path><path d="M352.5303481035783,46.70500579148919L271.9491524065548,35.601126804110145M271.9491524065548,30.741049052788533L271.9491524065548,35.601126804110145M271.9491524065548,35.601126804110145L269.4793142853315,36.6614824395752M352.5303481035783,41.84492804016758L271.9491524065548,30.741049052788533M271.9491524065548,30.741049052788533L269.4793142853315,31.80140468825359" style="fill:none;stroke:rgb(0,0,0);stroke-width:1;stroke-linecap:round"></path><path d="M124.82670386840033,-2.7813962523635793L124.82670386840033,53.36442529073792L215.4805504134086,9.710467799405293z" style="fill:rgb(238,238,238); fill-opacity: 0.4"></path><path d="M271.94915240655484,30.741049052788533L271.94915240655484,35.601126804110145L269.47931428533155,31.80140468825359z" style="fill:rgb(153,221,255); fill-opacity: 0.4"></path><path d="M235.66222638084542,4.934348789736763L235.66222638084542,9.794426541058375M235.66222638084542,9.794426541058375L233.19238825962216,10.854782176523432M235.66222638084542,9.794426541058375L264.42691333775497,7.146651747780097M235.66223132038223,4.9343490021632945L235.66223132038223,9.794426753484908M235.66223132038223,9.794426753484908L233.19239319915894,10.85478238894997M356.5112253710009,5.729965367393998L275.9300296739773,-5.37391361998505M275.9300296739773,-5.37391361998505L241.69080454686656,9.325736128520306" style="fill:none;stroke:rgb(0,0,0);stroke-width:1;stroke-linecap:round"></path><path d="M271.94915240655484,35.601126804110145L269.47931428533155,36.6614824395752L269.47931428533155,31.80140468825359z" style="fill:rgb(153,221,255); fill-opacity: 0.4"></path><path d="M235.66222638084542,4.934348789736763L233.19238825962216,5.994704425201822M235.66222638084542,4.934348789736763L264.42691333775497,7.146651747780097M235.66223132038223,4.9343490021632945L233.19239319915894,5.994704637628354M269.4793142853315,31.80140468825359L269.4793142853315,36.6614824395752M269.4793142853315,36.6614824395752L350.06050998235503,47.76536142695425" style="fill:none;stroke:rgb(0,0,0);stroke-width:1;stroke-linecap:round"></path><path d="M235.66223050290293,4.934348889516777L235.66223050290293,9.794426640838388L233.19239238167964,10.854782276303446z" style="fill:rgb(255,187,187); fill-opacity: 0.4"></path><path d="M233.192393199159,10.85478238894996L235.6622313203823,9.794426753484903L235.6622313203823,4.934349002163291z" style="fill:rgb(153,221,255); fill-opacity: 0.4"></path><path d="M269.4793142853315,31.80140468825359L350.06050998235503,42.90528367563264" style="fill:none;stroke:rgb(0,0,0);stroke-width:1;stroke-linecap:round"></path><path d="M235.66223050290293,4.934348889516777L233.19239238167964,10.854782276303446L233.19239238167964,5.9947045249818345z" style="fill:rgb(255,187,187); fill-opacity: 0.4"></path><path d="M233.192393199159,5.994704637628349L233.192393199159,10.85478238894996L235.6622313203823,4.934349002163291z" style="fill:rgb(153,221,255); fill-opacity: 0.4"></path><path d="M356.5112253710008,73.10494627518904L275.9300296739773,62.00106728780999L275.9300296739773,-5.373913619985051z" style="fill:rgb(238,238,238); fill-opacity: 0.4"></path><path d="M233.19238825962216,10.854782176523432L233.19238825962216,5.994704425201822M233.19238825962216,10.854782176523432L264.42691333775497,7.146651747780097M233.19239319915894,5.994704637628354L233.19239319915894,10.85478238894997M233.19238825962216,5.994704425201822L264.42691333775497,7.146651747780097" style="fill:none;stroke:rgb(0,0,0);stroke-width:1;stroke-linecap:round"></path><path d="M235.66223050290293,9.794426640838388L235.66223050290293,4.934348889516777L264.42691761698836,7.146651686519121zM233.19239238167964,10.854782276303446L235.66223050290293,9.794426640838388L264.42691761698836,7.146651686519121zM235.66223050290293,4.934348889516777L233.19239238167964,5.9947045249818345L264.42691761698836,7.146651686519121zM233.19239238167964,5.9947045249818345L233.19239238167964,10.854782276303446L264.42691761698836,7.146651686519121z" style="fill:rgb(255,187,187); fill-opacity: 0.4"></path><path d="M124.82670386840033,53.36442529073792L215.4805504134086,65.85628934250678L215.4805504134086,9.710467799405293z" style="fill:rgb(238,238,238); fill-opacity: 0.4"></path><path d="M352.5303481035783,46.705005791489185L271.94915240655484,35.601126804110145L271.94915240655484,30.741049052788533zM269.47931428533155,36.6614824395752L271.94915240655484,35.601126804110145L352.5303481035783,46.705005791489185z" style="fill:rgb(153,221,255); fill-opacity: 0.4"></path><path d="M275.9300296739773,-5.373913619985051L275.9300296739773,62.00106728780999L241.69080454686662,9.325736128520306zM215.4805504134086,9.710467799405293L215.4805504134086,65.85628934250678L244.0132401130419,-2.539241223223783z" style="fill:rgb(238,238,238); fill-opacity: 0.4"></path><path d="M269.47931428533155,31.80140468825359L350.06050998235503,42.90528367563263L271.94915240655484,30.741049052788533zM269.47931428533155,31.80140468825359L269.47931428533155,36.6614824395752L350.06050998235503,42.90528367563263z" style="fill:rgb(153,221,255); fill-opacity: 0.4"></path><path d="M241.69080454686662,76.70071703631534L275.9300296739773,62.00106728780999L356.5112253710008,73.10494627518904z" style="fill:rgb(238,238,238); fill-opacity: 0.4"></path><path d="M215.48055041340857,9.710467799405299L215.48055041340857,65.8562893425068" style="fill:none;stroke:rgb(0,0,0);stroke-width:1;stroke-linecap:round"></path><path d="M356.5112253710008,5.72996536739399L356.5112253710008,73.10494627518904L275.9300296739773,-5.373913619985051z" style="fill:rgb(238,238,238); fill-opacity: 0.4"></path><path d="M352.5303481035783,41.844928040167574L352.5303481035783,46.705005791489185L271.94915240655484,30.741049052788533z" style="fill:rgb(153,221,255); fill-opacity: 0.4"></path><path d="M356.5112253710009,5.729965367393998L356.5112253710009,73.10494627518904M356.5112253710009,73.10494627518904L322.2720002438901,87.8045960236944" style="fill:none;stroke:rgb(0,0,0);stroke-width:1;stroke-linecap:round"></path><path d="M275.9300296739773,62.00106728780999L241.69080454686662,76.70071703631534L241.69080454686662,9.325736128520306z" style="fill:rgb(238,238,238); fill-opacity: 0.4"></path><path d="M350.06050998235503,42.90528367563263L352.5303481035783,41.844928040167574L271.94915240655484,30.741049052788533zM350.06050998235503,47.76536142695424L269.47931428533155,36.6614824395752L352.5303481035783,46.705005791489185zM269.47931428533155,36.6614824395752L350.06050998235503,47.76536142695424L350.06050998235503,42.90528367563263z" style="fill:rgb(153,221,255); fill-opacity: 0.4"></path><path d="M448.8639126235733,89.82734480969107L388.4280186225192,81.4994359510917M388.4280186225192,2.895289498694661L388.4280186225192,81.4994359510917M388.4280186225192,81.4994359510917L348.4822549273695,98.64902777378525M352.5303481035783,41.84492804016758L352.5303481035783,46.70500579148919M352.5303481035783,46.70500579148919L350.06050998235503,47.76536142695425M352.5303555213831,41.84492887481795L352.5303555213831,46.7050065295785M352.5303555213831,46.7050065295785L350.0605174001598,47.765362165043555M352.5303555213831,46.7050065295785L382.3429289273859,48.48300069338266M241.69080454686656,9.325736128520306L241.69080454686656,76.70071703631534M241.69080454686656,76.70071703631534L322.2720002438901,87.8045960236944M352.5303481035783,41.84492804016758L350.06050998235503,42.90528367563264M352.5303555213831,41.84492887481795L350.0605174001598,42.90528451028301M352.5303555213831,41.84492887481795L382.3429289273859,48.48300069338266" style="fill:none;stroke:rgb(0,0,0);stroke-width:1;stroke-linecap:round"></path><path d="M352.5303479928664,41.84492802491176L352.5303479928664,46.70500577623337L350.0605098716431,47.76536141169843z" style="fill:rgb(255,187,187); fill-opacity: 0.4"></path><path d="M350.06050998235503,47.76536142695424L352.5303481035783,46.705005791489185L352.5303481035783,41.844928040167574z" style="fill:rgb(153,221,255); fill-opacity: 0.4"></path><path d="M356.5112253710009,5.729965367393998L322.2720002438901,20.429615115899352" style="fill:none;stroke:rgb(0,0,0);stroke-width:1;stroke-linecap:round"></path><path d="M352.5303479928664,41.84492802491176L350.0605098716431,47.76536141169843L350.0605098716431,42.90528366037682z" style="fill:rgb(255,187,187); fill-opacity: 0.4"></path><path d="M350.06050998235503,42.90528367563263L350.06050998235503,47.76536142695424L352.5303481035783,41.844928040167574z" style="fill:rgb(153,221,255); fill-opacity: 0.4"></path><path d="M350.06050998235503,42.90528367563264L350.06050998235503,47.76536142695425M350.0605174001598,47.765362165043555L350.0605174001598,42.90528451028301M350.0605174001598,47.765362165043555L382.3429289273859,48.48300069338266M350.0605174001598,42.90528451028301L382.3429289273859,48.48300069338266" style="fill:none;stroke:rgb(0,0,0);stroke-width:1;stroke-linecap:round"></path><path d="M352.5303479928664,46.70500577623337L352.5303479928664,41.84492802491176L382.3429210802296,48.48299983440053zM350.0605098716431,47.76536141169843L352.5303479928664,46.70500577623337L382.3429210802296,48.48299983440053zM352.5303479928664,41.84492802491176L350.0605098716431,42.90528366037682L382.3429210802296,48.48299983440053z" style="fill:rgb(255,187,187); fill-opacity: 0.4"></path><path d="M322.2720002438901,20.42961511589935L356.5112253710008,5.72996536739399L275.9300296739773,-5.373913619985051z" style="fill:rgb(238,238,238); fill-opacity: 0.4"></path><path d="M350.0605098716431,42.90528366037682L350.0605098716431,47.76536141169843L382.3429210802296,48.48299983440053z" style="fill:rgb(255,187,187); fill-opacity: 0.4"></path><path d="M322.2720002438901,87.80459602369439L241.69080454686662,76.70071703631534L356.5112253710008,73.10494627518904zM322.2720002438901,87.80459602369439L356.5112253710008,73.10494627518904L356.5112253710008,5.72996536739399zM241.69080454686662,9.325736128520306L322.2720002438901,20.42961511589935L275.9300296739773,-5.373913619985051zM448.86391262357336,89.82734480969107L388.4280186225192,81.49943595109168L388.4280186225192,2.8952894986946602z" style="fill:rgb(238,238,238); fill-opacity: 0.4"></path><path d="M448.8639126235733,11.223198357294029L388.4280186225192,2.895289498694661M388.4280186225192,2.895289498694661L348.4822549273695,20.04488132138822M241.69080454686656,9.325736128520306L322.2720002438901,20.429615115899352" style="fill:none;stroke:rgb(0,0,0);stroke-width:1;stroke-linecap:round"></path><path d="M241.69080454686662,9.325736128520306L241.69080454686662,76.70071703631534L322.2720002438901,20.42961511589935z" style="fill:rgb(238,238,238); fill-opacity: 0.4"></path><path d="M448.8639126235733,11.223198357294029L448.8639126235733,89.82734480969107M448.8639126235733,89.82734480969107L408.91814892842365,106.97693663238462" style="fill:none;stroke:rgb(0,0,0);stroke-width:1;stroke-linecap:round"></path><path d="M348.48225492736947,98.64902777378525L388.4280186225192,81.49943595109168L448.86391262357336,89.82734480969107z" style="fill:rgb(238,238,238); fill-opacity: 0.4"></path><path d="M437.39066494079975,35.2292003775348L376.95477093974563,26.901291518935427M376.95477093974563,22.041213767613815L376.95477093974563,26.901291518935427M376.95477093974563,26.901291518935427L374.48493281852234,27.961647154400485" style="fill:none;stroke:rgb(0,0,0);stroke-width:1;stroke-linecap:round"></path><path d="M448.86391262357336,11.223198357294034L448.86391262357336,89.82734480969107L388.4280186225192,2.8952894986946602z" style="fill:rgb(238,238,238); fill-opacity: 0.4"></path><path d="M437.39066494079975,30.36912262621319L376.95477093974563,22.041213767613815M376.95477093974563,22.041213767613815L374.48493281852234,23.101569403078873" style="fill:none;stroke:rgb(0,0,0);stroke-width:1;stroke-linecap:round"></path><path d="M388.4280186225192,2.8952894986946602L388.4280186225192,81.49943595109168L348.48225492736947,20.04488132138822z" style="fill:rgb(238,238,238); fill-opacity: 0.4"></path><path d="M376.95477093974563,22.041213767613815L376.95477093974563,26.90129151893543L374.48493281852234,23.101569403078873zM376.95477093974563,26.90129151893543L374.48493281852234,27.961647154400488L374.48493281852234,23.101569403078873z" style="fill:rgb(153,221,255); fill-opacity: 0.4"></path><path d="M374.48493281852234,23.101569403078873L374.48493281852234,27.961647154400485M374.48493281852234,27.961647154400485L434.92082681957646,36.28955601299986" style="fill:none;stroke:rgb(0,0,0);stroke-width:1;stroke-linecap:round"></path><path d="M241.69080454686662,76.70071703631534L322.2720002438901,87.80459602369439L322.2720002438901,20.42961511589935z" style="fill:rgb(238,238,238); fill-opacity: 0.4"></path><path d="M374.48493281852234,23.101569403078873L434.92082681957646,31.42947826167825" style="fill:none;stroke:rgb(0,0,0);stroke-width:1;stroke-linecap:round"></path><path d="M322.2720002438901,20.42961511589935L322.2720002438901,87.80459602369439L356.5112253710008,5.72996536739399z" style="fill:rgb(238,238,238); fill-opacity: 0.4"></path><path d="M490.8533554340925,99.60981937236492L480.7807059719646,98.22183449894256M480.7807059719646,8.388522501943532L480.7807059719646,98.22183449894256M480.7807059719646,98.22183449894256L435.128403708776,117.82136839582431" style="fill:none;stroke:rgb(0,0,0);stroke-width:1;stroke-linecap:round"></path><path d="M437.39066494079975,35.2292003775348L376.95477093974563,26.90129151893543L376.95477093974563,22.041213767613815zM374.48493281852234,27.961647154400488L376.95477093974563,26.90129151893543L437.39066494079975,35.2292003775348z" style="fill:rgb(153,221,255); fill-opacity: 0.4"></path><path d="M490.8533554340925,9.776507375365911L490.8533554340925,99.60981937236492M490.8533554340925,99.60981937236492L445.20105317090395,119.2093532692467M322.2720002438901,20.429615115899352L322.2720002438901,87.8045960236944" style="fill:none;stroke:rgb(0,0,0);stroke-width:1;stroke-linecap:round"></path><path d="M374.48493281852234,23.101569403078873L434.9208268195765,31.42947826167825L376.95477093974563,22.041213767613815zM374.48493281852234,23.101569403078873L374.48493281852234,27.961647154400488L434.9208268195765,31.42947826167825z" style="fill:rgb(153,221,255); fill-opacity: 0.4"></path><path d="M388.4280186225192,81.49943595109168L348.48225492736947,98.64902777378525L348.48225492736947,20.04488132138822zM490.8533554340925,99.60981937236492L480.7807059719647,98.22183449894256L480.7807059719647,8.38852250194353z" style="fill:rgb(238,238,238); fill-opacity: 0.4"></path><path d="M448.8639126235733,11.223198357294029L408.91814892842365,28.372790179987593" style="fill:none;stroke:rgb(0,0,0);stroke-width:1;stroke-linecap:round"></path><path d="M437.39066494079975,30.36912262621319L437.39066494079975,35.2292003775348L376.95477093974563,22.041213767613815zM434.9208268195765,31.42947826167825L437.39066494079975,30.36912262621319L376.95477093974563,22.041213767613815zM434.9208268195765,36.28955601299987L374.48493281852234,27.961647154400488L437.39066494079975,35.2292003775348zM374.48493281852234,27.961647154400488L434.9208268195765,36.28955601299987L434.9208268195765,31.42947826167825z" style="fill:rgb(153,221,255); fill-opacity: 0.4"></path><path d="M490.8533554340925,9.77650737536591L490.8533554340925,99.60981937236492L480.7807059719647,8.38852250194353zM408.91814892842365,106.97693663238462L448.86391262357336,89.82734480969107L448.86391262357336,11.223198357294034zM408.91814892842365,28.372790179987597L448.86391262357336,11.223198357294034L388.4280186225192,2.8952894986946602z" style="fill:rgb(238,238,238); fill-opacity: 0.4"></path><path d="M490.8533554340925,9.776507375365911L480.7807059719646,8.388522501943532M480.7807059719646,8.388522501943532L435.128403708776,27.988056398825293" style="fill:none;stroke:rgb(0,0,0);stroke-width:1;stroke-linecap:round"></path><path d="M408.91814892842365,106.97693663238462L348.48225492736947,98.64902777378525L448.86391262357336,89.82734480969107z" style="fill:rgb(238,238,238); fill-opacity: 0.4"></path><path d="M437.39066494079975,30.36912262621319L437.39066494079975,35.2292003775348M437.39066494079975,35.2292003775348L434.92082681957646,36.28955601299986M437.39068165411345,30.36912472751582L437.39068165411345,35.229202478837436M437.39068165411345,35.229202478837436L434.92084392546036,36.28955794576351M437.39068165411345,35.229202478837436L466.2571019998604,33.65268713280471M348.4822549273695,20.04488132138822L348.4822549273695,98.64902777378525M348.4822549273695,98.64902777378525L408.91814892842365,106.97693663238462M437.39066494079975,30.36912262621319L434.92082681957646,31.42947826167825M437.39068165411345,30.36912472751582L434.92084392546036,31.42948019444189M437.39068165411345,30.36912472751582L466.2571019998604,33.65268713280471" style="fill:none;stroke:rgb(0,0,0);stroke-width:1;stroke-linecap:round"></path><path d="M434.9208268195765,36.28955601299987L437.39066494079975,35.2292003775348L437.39066494079975,30.36912262621319z" style="fill:rgb(153,221,255); fill-opacity: 0.4"></path><path d="M437.39066624362255,30.36912280573878L437.39066624362255,35.229200557060395L434.9208281223993,36.28955619252546z" style="fill:rgb(255,187,187); fill-opacity: 0.4"></path><path d="M435.1284037087759,117.82136839582431L480.7807059719647,98.22183449894256L490.8533554340925,99.60981937236492z" style="fill:rgb(238,238,238); fill-opacity: 0.4"></path><path d="M490.8533554340925,9.776507375365911L445.20105317090395,29.376041272247672" style="fill:none;stroke:rgb(0,0,0);stroke-width:1;stroke-linecap:round"></path><path d="M434.9208268195765,31.42947826167825L434.9208268195765,36.28955601299987L437.39066494079975,30.36912262621319z" style="fill:rgb(153,221,255); fill-opacity: 0.4"></path><path d="M437.39066624362255,30.36912280573878L434.9208281223993,36.28955619252546L434.9208281223993,31.429478441203837z" style="fill:rgb(255,187,187); fill-opacity: 0.4"></path><path d="M434.92082681957646,31.42947826167825L434.92082681957646,36.28955601299986M434.92084392546036,36.28955794576351L434.92084392546036,31.42948019444189M434.92084392546036,36.28955794576351L466.2571019998604,33.65268713280471M434.92084392546036,31.42948019444189L466.2571019998604,33.65268713280471" style="fill:none;stroke:rgb(0,0,0);stroke-width:1;stroke-linecap:round"></path><path d="M437.39066624362255,35.229200557060395L437.39066624362255,30.36912280573878L466.25708640185456,33.65268467909626zM434.9208281223993,36.28955619252546L437.39066624362255,35.229200557060395L466.25708640185456,33.65268467909626zM437.39066624362255,30.36912280573878L434.9208281223993,31.429478441203837L466.25708640185456,33.65268467909626z" style="fill:rgb(255,187,187); fill-opacity: 0.4"></path><path d="M348.48225492736947,20.04488132138822L408.91814892842365,28.372790179987597L388.4280186225192,2.8952894986946602z" style="fill:rgb(238,238,238); fill-opacity: 0.4"></path><path d="M434.9208281223993,31.429478441203837L434.9208281223993,36.28955619252546L466.25708640185456,33.65268467909626z" style="fill:rgb(255,187,187); fill-opacity: 0.4"></path><path d="M445.2010531709039,119.20935326924669L490.8533554340925,99.60981937236492L490.8533554340925,9.77650737536591zM480.7807059719647,8.38852250194353L480.7807059719647,98.22183449894256L435.1284037087759,27.988056398825293z" style="fill:rgb(238,238,238); fill-opacity: 0.4"></path><path d="M348.4822549273695,20.04488132138822L408.91814892842365,28.372790179987593" style="fill:none;stroke:rgb(0,0,0);stroke-width:1;stroke-linecap:round"></path><path d="M408.91814892842365,28.372790179987597L408.91814892842365,106.97693663238462L448.86391262357336,11.223198357294034zM348.48225492736947,20.04488132138822L348.48225492736947,98.64902777378525L408.91814892842365,28.372790179987597zM445.2010531709039,29.376041272247672L490.8533554340925,9.77650737536591L480.7807059719647,8.38852250194353zM348.48225492736947,98.64902777378525L408.91814892842365,106.97693663238462L408.91814892842365,28.372790179987597zM445.2010531709039,119.20935326924669L435.1284037087759,117.82136839582431L490.8533554340925,99.60981937236492z" style="fill:rgb(238,238,238); fill-opacity: 0.4"></path><path d="M408.91814892842365,28.372790179987593L408.91814892842365,106.97693663238462" style="fill:none;stroke:rgb(0,0,0);stroke-width:1;stroke-linecap:round"></path><path d="M480.7807059719647,98.22183449894256L435.1284037087759,117.82136839582431L435.1284037087759,27.988056398825293zM445.2010531709039,29.376041272247672L445.2010531709039,119.20935326924669L490.8533554340925,9.77650737536591zM435.1284037087759,27.988056398825293L445.2010531709039,29.376041272247672L480.7807059719647,8.38852250194353z" style="fill:rgb(238,238,238); fill-opacity: 0.4"></path><path d="M435.128403708776,27.988056398825293L435.128403708776,117.82136839582431M435.128403708776,117.82136839582431L445.20105317090395,119.2093532692467M445.20105317090395,29.376041272247672L445.20105317090395,119.2093532692467" style="fill:none;stroke:rgb(0,0,0);stroke-width:1;stroke-linecap:round"></path><path d="M435.1284037087759,117.82136839582431L445.2010531709039,119.20935326924669L445.2010531709039,29.376041272247672zM435.1284037087759,27.988056398825293L435.1284037087759,117.82136839582431L445.2010531709039,29.376041272247672z" style="fill:rgb(238,238,238); fill-opacity: 0.4"></path><path d="M435.128403708776,27.988056398825293L445.20105317090395,29.376041272247672" style="fill:none;stroke:rgb(0,0,0);stroke-width:1;stroke-linecap:round"></path></svg>